<svg xmlns="http://www.w3.org/2000/svg" width="69.435" height="98.711"><defs><clipPath id="a"><path fill="none" d="M0 0h69.435v98.711H0z"/></clipPath></defs><path d="M33.707 39.763l.273-.03-.071-.011z"/><g clip-path="url(#a)"><path d="M32.891 49.207a.477.477 0 00.171-.016 1.786 1.786 0 00-.205-.1c.031.035.064.066.035.116m.116-1.305a2.924 2.924 0 00.416-.265.469.469 0 00-.416.265m.517-2.121c-.059-.066-.166-.027-.276-.074-.022.135.089.181.276.074m-.376 4.154l-.209-.361.109.264zm.374 1.801a.379.379 0 00-.223-.1zm.183 22.09l.006-.084c-.04.027-.03.057-.006.084m2.641 21.616a.159.159 0 00-.125-.089l.03.205zm.032-38.219l.151.136-.2-.187zm2.431-.985l-.124-.118.127.163c-.015-.027-.033-.057 0-.046m-.661-.092a1.069 1.069 0 00.343.247l-.343-.247m-.406.264c.03.053.113.122.182.209.041-.009-.031-.1-.182-.209m1.011-.482l.084.214-.031-.126zm5.928-10.458a.34.34 0 00.072.1l.014-.048zM28.716 97.637l.01.2-.007-.272zm2.231 1.023v-.171l-.024.207c.007-.031.015-.066.027-.036m-.827-.358c.032.024.042-.089.017-.277-.015.059-.006.167-.017.277m.971.199l.022-.1-.084.21zm.451-.476a1.223 1.223 0 00-.025.223zm5.19-.183l-.02-.007c.006.041.014.031.02.007m5.082-2.643a.346.346 0 00-.021.125.288.288 0 01.048-.028zM26.098 63.946a.633.633 0 01-.243-.038.432.432 0 00.243.038m-4.702-2.178l.071-.04-.032-.25zm-4.534-2.791a.813.813 0 00-.313-.182.684.684 0 00.313.182M2.815 37.256a.165.165 0 00-.167.054 2.591 2.591 0 00.22.327.774.774 0 01-.053-.381m-.254-3.305c.021 0 .04-.02.063-.021-.028-.121-.047-.083-.063.021m.597 7.591a6.273 6.273 0 00-.2.953c.144-.137.252-.254.2-.953m2.215 6.692c.172.152.192-.011.37.057-.231-.387-.413-.457-.37-.057M2.669 34.739l.152 1.258-.067-.917zm.407-6.246a.551.551 0 00.134.392zm58.517-10.772l-.168-.24a.486.486 0 00.168.24M36.602 78.673a.423.423 0 00-.082-.313l-.068.682z"/><path d="M69.419 37.571h.016c-.009 0-.009-.015-.016-.019.359-15.068-9.466-29.921-23.587-35.409a11.03 11.03 0 00-3.532-.795C39.952.847 37.63.039 35.194.001A34.744 34.744 0 0018 4.356v-.007l-.056.04A33.075 33.075 0 003.453 19.974a41.574 41.574 0 00-3.389 19.2C.6 47.132 6.053 53.879 12.412 58.141a113.937 113.937 0 0012.14 7.06c2.45 1.511 7.2 3.452 8.843 6.307a.245.245 0 00.078.182l.014-.03c.036.068.058.14.09.209-.061.056-.1.121-.193.22a2.1 2.1 0 00.356.16c.021.057.038.115.057.172l.017.438a.4.4 0 01-.369.233c.251.021.343.1.387.189l.026.64a.346.346 0 01-.041.007.764.764 0 01-.111-.1l-.015.134c-.071-.012-.121-.007-.135-.024 0 .119.434.12.148.275-.158 0-.166-.085-.231-.153-.035.17.23.317.41.458l.015.358h-.007.007c.014.34.024.679.036 1.02a2.045 2.045 0 01-.207-.089c-.105.105.068.241.218.4 0 .134.01.268.014.4a1.225 1.225 0 00-.189.035c.056.04.129.08.2.122l.007.229c-.015.006-.011.012-.03.017h.031c.007.207.015.413.021.62a.524.524 0 01-.109.115l.11.056c.022.687.041 1.372.061 2.059a24.809 24.809 0 00-.094 3.2.841.841 0 00.173.536c.063 3.974.037 7.949-.127 11.922h-.108c-1.33.073-3.233.329-4.563.47-.29.026-1.094.089-1.37.106-.439.111-.621-.652-1.033-.8a1.663 1.663 0 10.577 2.28.428.428 0 01.194-.193v.184l.069-.141v-.054a.6.6 0 01.194-.028v.021l.009-.02c.082 0 .163.014.245.024v.208l.064-.146v-.057h.066l.006.166c.026.146.051-.386.067-.04a.587.587 0 01-.035.3c.04-.1.109.406.191.354a2.348 2.348 0 00.088-.756l.1.007v.051c.025.328.061.135.1-.043l.09.007a2.831 2.831 0 00-.009.527c-.031-.017-.032-.134-.075-.17.068.548.155.071.2-.063-.014-.051-.016-.2-.041-.162l.036-.122.078.006c.017.151.073.093.084.306-.025.275-.072-.126-.068.234.1.152.261-.223.421-.5l.125.015-.007.127a.341.341 0 01.08-.12l.113.012a.886.886 0 01.148.473c-.017-.324.121.121.131-.44h.028a.718.718 0 00.041.083v-.078l.052.006c.012.106.025.217.056.208a2.505 2.505 0 01-.014-.2l.14.016.1.538c0-.116-.01-.251-.031-.411.024.078.031-.007.036-.115h.04v.47c.052.116.083-.318.116-.457h.037v.016-.016l.2.024c0 .332-.075.317-.1.509a2.168 2.168 0 01.063.333l.126-.831h.009c-.027.549.066.552.093.6-.006-.267-.026-.4-.069-.354a1.106 1.106 0 01.024-.239l.125.015v.462c.061-.277.094-.1.131-.433.033.345-.024.105.011.45l.048-.312c.036.088-.037.342.019.422.006-.2.052-.412.1-.363l-.012.119c.028-.11.064-.01.068-.3h.012l.024.35-.006-.348h.017c.079.247.116 1.055.226.606a1.3 1.3 0 01.014-.423c-.049-.287-.061.3-.108.349 0-.167.009-.344.02-.516l.126.014c0 .09.01.2.014.343.075.08.1-.429.179-.176v.155c.014-.648.057.188.109-.291l.168.017v.066-.064l.088.01c0 .11.009.217.015.338-.062.136-.072-.186-.119.342.1.693.087-.547.2.067l.021-.734h.027a1.536 1.536 0 00.016.3 1.953 1.953 0 000-.294c.049 0 .1.012.152.016a.246.246 0 00.028.084c-.006-.038 0-.052-.007-.082.043 0 .08 0 .124.01h.069c0 .016 0 .04-.007.051l.021-.049c.208.019.407.033.6.046.028.351.057.765.114.542a1.742 1.742 0 00.019-.531h.041c.016.427.042-.217.082.23 0-.053-.007-.134-.009-.224h.017l.327.016c.007.049.011.085.022.148v-.148l.111.006c.106-.015.212.041.317-.026l-.009.292a3.156 3.156 0 01.082-.369.429.429 0 00.067-.093.675.675 0 01.118-.148c.024 0 .045-.009.067-.014a.083.083 0 01.035.022l.017.13c.015-.012.01-.045.016-.067.066.15.131.335.2.281v.218l.025-.219c.113-.012.225-.021.338-.035 0 .1.01.2.01.255.019-.073.035-.165.051-.261h.046c.068-.019.139-.027.208-.045v.168l.025-.172.026-.006a1.5 1.5 0 01.015.327c.1-.849.134.275.231-.121l-.054-.1v-.147l.071-.015a1.467 1.467 0 00.075.351c.014-.1.026-.236.038-.376l.15-.031a1.015 1.015 0 01.047.351 1.271 1.271 0 01.038-.37c.052-.011.105-.024.157-.033v.035c0 .019-.017.083-.024.111l.031.015v.135c.027 0 .027-.434.064-.147a.587.587 0 01-.036.231c.04.036.074-.231.108-.41.027-.006.054-.014.083-.019v.011-.011c.08-.015.16-.038.24-.052 0 .043-.009.109-.022.225.026.109.059-.088.1-.241.03 0 .058-.006.088-.011 0 .073.006.146.01.212l.032-.217h.047c0 .02 0 .019.007.047v-.048c.048-.007.1-.01.144-.016a.766.766 0 01.03.12l.014-.125a13.8 13.8 0 014.449.043.9.9 0 100-1.7c-.053.019-.106.024-.16.037a1.139 1.139 0 01.073-.666 2.69 2.69 0 01-.024.5c.024.048.042.183.066.092a3.492 3.492 0 01.045-.953c-.121-.244-.217.805-.338.755.012-.085.01-.219.015-.322-.14.1-.312.25-.367-.009-.047-.1-.056.413-.115.533l-.026-.339c-.032.217-.13-.144-.1.407 0 .048.027-.264.054-.167v.193l.063-.069-.012.137-.167.009a2.786 2.786 0 00.035-.486c-.024.073-.054-.073-.059.119 0 .048 0 .167.02.12l-.025.247h-.092c.047-.058.09 0 .062-.44-.256.231-.609-.108-.9.455l.048-.249c-.142.455-.2-.349-.307.27h-.022l.011-.319c-.045-.083-.085.212-.129.322h-.053a.778.778 0 01-.026-.129v.13h-.033l-.01-.021v.022h-.093c-.01-.066-.024-.04-.037 0h-.077c0-.049.014-.09.016-.125-.094.171-.148-.108-.208.13-.063 0-.127.007-.191 0a.739.739 0 00-.037-.208.607.607 0 00-.059.2 23.886 23.886 0 01-2.956-.447.537.537 0 01-.115-.338 1.069 1.069 0 00.322.063c-.1-.594-.249-1.326.012-1.563.1-.2-.412-.236-.532-.489l.339-.113c-.217-.136.145-.552-.407-.4-.049.016.262.119.166.235l-.201.013.069.268-.1-.037c-.006-.236-.015-.473-.02-.709a.769.769 0 00.463.132c-.073-.1.072-.234-.12-.252-.047.017-.166.015-.12.083l-.226-.093c0-.121-.009-.243-.011-.364.043.183.019.338.431.224-.233-1.085.106-2.585-.457-3.843l.249.2c-.458-.606.359-.86-.282-1.313v-.085l.33.048c.089-.2-.246-.387-.335-.583v-.158a.346.346 0 01.142-.145l-.142.022v-.114a.143.143 0 00.036-.077l-.036.014v-.512c.012.036 0 .092.02.131.074-.047.037-.11-.02-.182v-.3c.057.015.1.058.141.069-.173-.4.109-.63-.134-.886 0-.271.01-.542.012-.813a.155.155 0 00.118-.285.886.886 0 00.071-.36 50 50 0 01.027-2.42c.332-.546.636.384.612 1.112-.188.343-.337-.247-.49-.376a2.215 2.215 0 00-.113 1c.306-.457.714-.142.948.671.243-1.776-.754-3.227-.417-4.965.047.193.193.168.281.262a10.275 10.275 0 01.708-2.83 3.743 3.743 0 011.2-1.595c.454-.41.187-.825.72-1.495l.51.017c.186-.476 1.571-.97.843-1.143-.072-.009-.177.45-.553.6l-.063-.191c-.243.191-.443.418-.664.625l.04-.208a16.492 16.492 0 012-1.441c-.214.281-.313.606-.173.684.255-.245.713-.363.666-.559-.073-.01-.13-.115-.3.048.056-.129.113-.261.171-.391.384-.229.773-.448 1.169-.661-.578.375-1.123.64-.549.805 1.557-1.033 3.712-1.969 5.854-3.121a31.54 31.54 0 006.044-3.994l-.469.625c1.581-1.62 2.827-1.531 3.731-3.095.073-.061.147-.12.22-.182l.08.392c.666-.454.965-1.23 1.512-1.787.04-.036.075-.074.114-.11a2.036 2.036 0 01.657-.414l-.2-.058.172-.168a2.408 2.408 0 00.384-.292l-.1.015q.716-.711 1.39-1.458c.015.1-.235.3-.36.47.215-.079.358-.34.509-.634.215-.241.433-.479.641-.724.011.077-.058.23-.053.285.838-1.218 1.548-1.752 1.877-2.669a30.147 30.147 0 001.611-2.549 1.3 1.3 0 00.412-.389 2.542 2.542 0 00.249-.89 25.963 25.963 0 002.4-7.415 32.759 32.759 0 00.483-4.9M51.709 63.454c-6.527 4.166-12.9 5.463-15.931 10.656.012-.223.016-.447.03-.671.115-1.867.219-3.942.245-5.822.073-.358-.2-.667-.338-.97a1.558 1.558 0 01.132-.971 4.324 4.324 0 00.193-1.94l-.028-1.941-.058-3.881c0-.12-.006-.254-.009-.376l.02.019-.021-.059v-.166l.106.1c.122.084-.234-.312.024-.078.157.146.165.192.186.24-.037-.1.371.2.4.1.027-.066-.254-.359-.469-.6l.079-.067.035.037c.25.212.142.048.043-.1l.075-.063a2.456 2.456 0 00.365.377c-.037.011-.12-.071-.179-.062.44.335.17-.069.109-.2-.046-.026-.156-.131-.146-.083l-.057-.113.066-.054c.116.09.119.007.277.148.174.213-.144-.033.114.218.182.032.043-.356-.028-.671l.106-.087.083.094a.324.324 0 01-.024-.144l.1-.079a.851.851 0 01.445.22c-.243-.215.178-.007-.212-.412l.025-.02c.028.012.047.014.089.027l-.056-.059c.014-.012.028-.025.043-.036.084.066.172.134.191.1a2.863 2.863 0 01-.155-.134l.118-.1.459.306a4.014 4.014 0 00-.314-.267c.073.037.017-.03-.056-.11a.356.356 0 00.033-.027c.111.1.246.24.335.332.122.042-.162-.29-.234-.412l.031-.025c.006 0 .007 0 .016.007l-.012-.011.172-.139c.236.233.166.282.28.439a2.078 2.078 0 01.283.187l-.49-.684.007-.006c.367.411.439.34.492.353-.193-.184-.3-.262-.3-.2a.958.958 0 01-.152-.186l.037-.03.069-.057c.089.083.209.209.325.328-.148-.243 0-.139-.205-.406.27.218.056.092.327.309l-.183-.257c.089.035.213.27.313.285-.137-.147-.252-.332-.183-.33l.074.094c-.056-.1.026-.068-.167-.267l.012-.01.267.231-.252-.244.014-.011c.234.113.838.659.6.256a1.2 1.2 0 01-.288-.309c-.241-.165.168.261.163.329-.12-.116-.236-.251-.35-.381l.106-.087c.068.059.147.132.254.233.114 0-.224-.382.014-.261l.108.11c-.449-.469.177.09-.124-.288l.142-.118.049.043-.043-.048c.025-.021.048-.041.074-.061.08.075.16.147.251.228.049.144-.186-.077.15.333.569.412-.319-.453.2-.109l-.5-.536.024-.02a1.374 1.374 0 00.221.2 1.8 1.8 0 00-.2-.217c.038-.033.075-.063.115-.1a.216.216 0 00.083.038c-.033-.022-.041-.035-.066-.053l.1-.088.011.009-.009-.01.057-.048.031.041-.02-.051c.17-.142.34-.286.5-.422.268.225.579.491.465.292a1.571 1.571 0 00-.361-.387l.035-.031c.313.288-.121-.187.224.1-.037-.032-.1-.1-.162-.155l.271-.247c.042.028.071.052.122.088l-.106-.1c.026-.025.064-.057.089-.08.071-.092.191-.134.225-.261l.2.213a2.838 2.838 0 01-.2-.323.474.474 0 00-.015-.116c-.024-.135-.04-.264.073-.264l.1.075c0-.021-.024-.041-.035-.061.156.056.337.137.349.049.04.04.089.09.151.157l-.137-.174.213-.3c.088.078.163.146.21.192a3.031 3.031 0 00-.167-.254l.157-.223.139.147-.122-.168.011-.017a1.759 1.759 0 01.266.24c-.527-.674.3.092.093-.264l-.114-.028a4.354 4.354 0 01-.119-.126l.043-.061a1.463 1.463 0 00.323.207c-.062-.087-.155-.2-.247-.312l.089-.126a.839.839 0 01.3.218 1.057 1.057 0 01-.238-.3l.1-.136.031.028c.011.016.045.072.061.1l.035-.014a1.269 1.269 0 01.092.1c.024-.019-.286-.329-.054-.153a.525.525 0 01.135.191c.057 0-.106-.221-.208-.375l.053-.073.009.006-.007-.01c.052-.071.105-.139.156-.209.028.032.064.077.134.165.094.056-.006-.1-.084-.231l.061-.08.145.132c-.033-.048-.08-.11-.12-.166l.033-.045a.184.184 0 01.03.022l-.026-.027.094-.126a.852.852 0 01.1.059l-.077-.1a15.1 15.1 0 013.434-3.373.886.886 0 10-1.2-1.2c-.036.049-.071.09-.106.14-.24-.187-.442-.479-.406-.518a2.511 2.511 0 01.339.376c.052.016.163.1.116.014a3.175 3.175 0 01-.64-.708c-.266-.08.4.736.275.793-.051-.071-.148-.162-.217-.24-.035.179-.062.417-.287.276-.1-.032.249.334.288.465l-.26-.219c.129.177-.2 0 .215.36.037.032-.165-.208-.075-.16l.132.139v-.1l.08.1c-.038.048-.075.1-.114.145a2.622 2.622 0 00-.317-.37c.033.069-.094-.01.038.13.037.03.121.114.1.069l.158.194-.071.08c-.014-.088.079-.068-.266-.369-.032.359-.541.39-.369 1.015l-.14-.213c.217.436-.418-.106-.028.449l-.014.014-.235-.254c-.1-.028.127.273.134.355l-.016.017c-.021 0-.058-.016-.14-.075l.111.1-.017.017c-.02-.01-.04-.02-.048-.014l.035.028-.094.094c-.009-.02.02-.015.007-.042-.063-.046-.046 0-.016.051l-.052.052c-.037-.042-.064-.083-.089-.111.048.194-.189.037-.067.251l-.156.139a.643.643 0 00-.163-.108.521.521 0 00.09.173 38.06 38.06 0 01-3.228 2.433c-.21.046.369.647-.205.494-.337-.105-.356.109-.486.21l-.334.365c-.9 1-2.068 2.482-2.968 3.587-.151-6-.355-13.238-.444-18.778a4.736 4.736 0 01.224-1.941.915.915 0 10-1.7 0 3.262 3.262 0 01.193.824l-.184-.009c.052.1.1.2.14.294l.071-.014c.015.278.012.558 0 .838l-.011.009c0 .007.009.014.011.021 0 .345-.014.705-.02 1.055a.511.511 0 01-.2 0l.145.277a.368.368 0 00.053.01v.267l-.16.03c-.106.077.142.156.155.218v.011c0 .019-.035.037-.116.052a.245.245 0 01-.3-.148c.1.171-.4.466-.351.813.026.255.427.291.75.371l-.007.406c-.014 0-.036-.009-.047-.007-.323.106-.137.26.038.4 0 .132-.006.267-.01.4-.106 0-.224-.167-.518-.047.017-.134.134-.139.17-.324-.547.292-.068.659.064.846.051-.054.2-.068.161-.172l.114.142-.007.345c-.139.075-.085.307-.293.355-.273-.105.125-.306-.234-.29-.148.413.214 1.1.485 1.767 0 .183-.009.37-.014.553l-.12-.03a1.19 1.19 0 01.113.319c0 .173-.009.346-.012.52a.939.939 0 01-.462.61c.322-.073-.116.512.432.557v.134c-.026.041-.037.088-.074.165l.071.011c0 .075 0 .15-.006.225-.1.052-.208.105-.2.236a.661.661 0 01.2-.056c0 .2-.011.395-.016.593-.183.151-.359.3-.531.427a1.212 1.212 0 00.41-.13c-.077.1 0 .129.11.147v.172a2.949 2.949 0 01-.463.01c-.115.219.309.351.45.492v.163c-.006 0 0 .01-.012.016h.012l-.022.861c-.329.009-.314-.319-.5-.443-.115.071-.152.22-.333.267.246.139.575.36.828.539v.038c-.549-.119-.551.276-.6.39.267-.021.4-.108.354-.291a.336.336 0 01.238.1c0 .179-.009.356-.014.536a3.709 3.709 0 01-.462-.007c.276.26.094.4.433.556-.345.145-.105-.1-.452.047l.312.208c-.088.152-.342-.157-.422.08.2.027.412.219.363.406l-.118-.053c.109.118.009.275.307.285v.056l-.354.1.353-.026v.068c-.243.337-1.06.5-.61.969.129-.121.344-.011.423.053.287-.209-.3-.257-.348-.457a1.6 1.6 0 01.518.085c0 .179-.01.359-.014.538a2.928 2.928 0 01-.345.056c-.08.319.428.44.173.765l-.153-.01c.651.056-.2.241.294.463 0 .238-.011.475-.016.713l-.072.019.071.019c0 .124-.006.249-.009.374a2.38 2.38 0 00-.345.067c-.137-.262.186-.306-.343-.509-.694.437.548.369-.066.87l.741.09v.115a.4.4 0 00-.3.068.47.47 0 00.3.048l-.007.32a1.582 1.582 0 00-1.365 1.887 1.481 1.481 0 001.3 1.208c0 .234-.009.469-.012.7-.351.124-.768.246-.546.485a.452.452 0 00.538.068v.186c-.442.068.21.182-.239.346a1.4 1.4 0 01.234-.036c-.006.488-.015.977-.02 1.458-.052.033-.089.052-.153.1.038 0 .1-.01.152-.016l-.007.475a11.683 11.683 0 00.022 1.349l-.291-.04a1.88 1.88 0 01.37.351 1.61 1.61 0 00.093.28 1.618 1.618 0 01.137.933c-.046.025-.08.049-.129.073a.257.257 0 00.046.11 1.3 1.3 0 00-.26.792 1.493 1.493 0 01-.219-.019l.221.106.063 1.429a1.936 1.936 0 01-.286.052 1.592 1.592 0 00.3.243l.011.241-.014-.012c0 .046-.014.071-.019.108a19.354 19.354 0 00-2.387-2.042l-.024-.036c-.024-.015-.045-.019-.067-.032a37.817 37.817 0 00-3.257-2.073.155.155 0 01.09-.176l-.984-.37c-.03 0-.035.022-.058.027l-.844-.475-.015-.188c-.188-.221-.533-.156-.741-.238l-.062-.035a.233.233 0 01-.109-.181c0-.246.355-.094.617-.007-.588-.209-1.288-1.161-2.408-1.7a1.424 1.424 0 00-1.518.02q-.629-.349-1.261-.708c.006-.009.022-.015.022-.026-.171-.453-.715-.565-1.239-.667q-.629-.366-1.256-.741c.12-.048.6.087.389-.35.4.252.361.361.918.723-.636-.985-1.986-1.242-2.628-1.475.139.142.1.3.439.452l-.387-.127c-.379-.236-.757-.47-1.132-.713-.181-.262-.887-.646-.908-.917.455-.014.84.7.987.365-1.1-.871-3.174-1.882-5.09-3.118q-.844-.711-1.637-1.464l.122-.009a6.63 6.63 0 01-.474-.346q-1.026-1.012-1.935-2.111a4.019 4.019 0 01-.667-1.511c-.142.4-.839-1.419-1.388-1.364-.124-.2-.24-.411-.358-.62-.033-.083-.073-.178-.12-.3h-.052q-.2-.382-.395-.772a1.368 1.368 0 00-.155-.74.612.612 0 01-.072.233 20.032 20.032 0 01-.768-1.975 8.738 8.738 0 01.084-1.442.968.968 0 00-.293.538c0-.325-.094-.422-.2-.463-.049-.2-.082-.406-.126-.606a1.041 1.041 0 01.416-.111 3.985 3.985 0 00-.707-1.5c-.12-1.253-.186-2.5-.189-3.726.136-.006.2.191.243.464a5.466 5.466 0 00.259 1.123c.1-.244.118-.746.291-.9a18.868 18.868 0 01-.767-1.936v-.083c.558.516.614-.94.678-1.34-.27.056-.415.35-.4.992-.151-.041-.209-.234-.247-.46.031-.593.073-1.182.131-1.767.13-.053.306.027.478.064-.148-.922.1-1.385-.158-1.974.412-.449.057.35.469-.1l-.208-.767c.161-.51.261.6.455-.205a1.573 1.573 0 01-.077-1.451l.071.207c-.01-.448.252-1-.114-1.055l.031-.127.492-.3h-.41v-.014a5.809 5.809 0 01.935-1.449 2.75 2.75 0 00.731-1.8c-.26.349-.337-.08-.335-.32-.516.594-.014.949-.2 1.6-.177-.007-.29-.236-.4-.447q.306-.895.655-1.764a1.2 1.2 0 01.379-.056c.418-1.013.228-1.561.914-2.486l.125.1c-.471-.447.443-.656.45-1.485.426-.761.888-1.495 1.368-2.216h.022v-.021c.252-.377.51-.75.777-1.115a1.729 1.729 0 00.367 0c-.448.784-.792.739-.7 1.625a1.652 1.652 0 00.83-1.122 1.769 1.769 0 01.949-1.234l-.363-.668.255-.3c.063.054.156.068.337-.046.035-.161 0-.239-.057-.286.455-.53.924-1.048 1.413-1.547a1.825 1.825 0 00.3-.221c-.059.027-.084.03-.129.047.436-.437.886-.859 1.346-1.269h.006v-.01c.257-.229.521-.452.787-.672-.019.04-.038.077-.053.105l.183-.217a31.216 31.216 0 017.495-4.579 1.778 1.778 0 001.809-.119c.552-.418.277-.5-.007-.6.207-.075.415-.146.624-.217.389.418.547-.372 1.245-.119-.058-.046-.22-.09-.23-.205a33.071 33.071 0 014.908-1.07c.121.035.26.072.431.111a1.008 1.008 0 00-.084-.158 35.688 35.688 0 016.31-.259l-.157.282a5.144 5.144 0 011.11-.273 12.763 12.763 0 014.31.522c.067.063.139.116.2.184a3.081 3.081 0 00.392.064q1.236.57 2.513 1.094a.443.443 0 01-.135.189c.144-.025.3-.043.443-.068.457.184.914.379 1.365.541a34.378 34.378 0 013.123 1.584.622.622 0 010 .282 5.562 5.562 0 00.812.189 36.128 36.128 0 013.017 2.05.863.863 0 00-.125.126l.429.1c.092.069.181.141.271.212.014.142.236.358-.019.406a1.823 1.823 0 01.916.318l.036.028a2 2 0 01.481.573 3.021 3.021 0 001.187 1.262l-.521-.626a.276.276 0 01.145-.069c.265.244.528.49.787.741a6.222 6.222 0 00.5 1 3.126 3.126 0 00.653.173q.822.872 1.583 1.8c.113.241.176.473.071.622a.57.57 0 01.574.182c.5.634.976 1.282 1.43 1.946a2.469 2.469 0 01-.265-.229l.231.4c-.083 0-.116.045-.156 0 .212.354.583.122.624.736-.137.08-.294-.165-.474-.332a3.532 3.532 0 001.12 1.093 36.415 36.415 0 012.28 4.384 2.293 2.293 0 01-.3-.209 3.179 3.179 0 00.74 1.288q.245.618.465 1.245a.534.534 0 00-.14.178c.105.108.218.224.322.345.079.235.152.473.226.71a.568.568 0 01-.025.131l.057-.027q.306 1 .552 2.011a2.763 2.763 0 01-.014.517l.176.2a31.714 31.714 0 01.671 4.87l-.024.074.026-.01a29.884 29.884 0 01-.4 6.894c-1.438 9.183-8.05 16.56-15.841 21.236m-7.368-16.8a2.379 2.379 0 01.158.2l-.036.041c-.1-.129-.2-.261-.123-.24m-1.428 4.04l-.025-.022.01-.011a.273.273 0 01.015.033m1.622-3.881l-.043-.073c.041.035.062.038.077.033l-.033.04M42.3 51.482a.571.571 0 01.067.144c-.031-.024-.068-.062-.1-.093l.036-.051m-3.733 3.651c.09.111.13.177.025.122-.027-.038-.046-.053-.069-.085l.045-.037m-1.762 1.578c-.033-.035-.056-.054-.079-.078l.01-.007a.515.515 0 01.069.085m-.679.428l.077.155a2.421 2.421 0 00-.11-.126l.033-.028m-1.989-17.883l-.157-.208a1.119 1.119 0 00.161.043v.165m-.067 3.124a.19.19 0 01-.1-.041.641.641 0 00.1 0v.046m-.233 9.225c-.144-.054-.219-.131-.105-.271a1.115 1.115 0 00.11.061v.21m11.444-5.745l-.137.181c-.071-.194-.061-.318.137-.181m-.24.316a2.059 2.059 0 01-.166-.163c-.144-.259.014-.043.187.136l-.021.027m-.093.121c-.021.027-.042.058-.064.085-.134-.166-.33-.389-.2-.346zM23.345 63.008l-.492-.271.7.208a.74.74 0 00-.208.063m-9.892-6.017l-.087-.064a.2.2 0 01.115 0c-.02.022-.017.042-.028.063M2.608 29.826a2.832 2.832 0 00-.1-.306q.065-.341.135-.679a1.116 1.116 0 01-.037.985m55.16-16.873a4.786 4.786 0 01-.466-.363.443.443 0 010-.114c.158.157.313.317.469.476m7.589 11.378c.045.105.087.212.13.317-.049-.085-.1-.162-.148-.267.006-.021.012-.031.019-.049m-31.45 51.682c.012 0 .019 0 .03-.007v.053c-.01-.019-.024-.026-.032-.046m-5.35 21.552c0-.059.007-.113.011-.167h.04zm.772-.1h.014a.774.774 0 01-.011.118v-.118m2.117.35c.007-.046.006-.069.011-.109l.052.006c-.012.142-.03.214-.063.1m4.838.1v-.115c.016 0 .033-.007.051-.011a.537.537 0 01-.046.126m.965-.276v-.047h.02a.4.4 0 01-.017.051m4.711-1.725c-.077.02-.153.04-.23.053.088-.221.191-.34.23-.053m-.337.071h-.027a2.259 2.259 0 01-.006-.264c.079-.3.033 0 .033.261m-.171-.379v.397l-.1.009c.021-.213.037-.528.1-.4m-.569.418h-.035l.015-.066a.109.109 0 00.02.064m-.062-.231a2.335 2.335 0 01-.025.234h-.049c.019-.153.041-.3.074-.235m-5.184-.233c0-.136-.007-.273-.011-.41a1.518 1.518 0 01.161.437l-.15-.027m-.027-.944v-.135a.5.5 0 01.218-.009c.278.313.031.163-.214.144m.332-.728h-.351c0-.136-.009-.271-.011-.407.209.083.483.16.363.41m-.421-2.419v-.158l.072.071a.116.116 0 00-.068.088m.235-.27a.684.684 0 01-.245-.109c0-.072 0-.142-.006-.213.158.084.317.181.251.322M35.7 80.633a18.4 18.4 0 01.375-3.161 10.767 10.767 0 01-.375 3.161m.835-4.795c.049-.127.1-.256.152-.379.1-.038.2-.038.25.054-.126 1.1-.167.426-.4.324m2.077-2.977A1.6 1.6 0 0138 73.99l-.293-.236a9.778 9.778 0 01.928-1.047c-.009.052-.017.1-.024.155m5.921-3.94c.144-.072.286-.144.429-.214l-.184.166a.533.533 0 00-.245.048m.908-.189a1.021 1.021 0 01.235-.382c.2-.1.407-.2.606-.306l.072-.036a1.785 1.785 0 01-.913.724"/></g></svg>