<svg xmlns="http://www.w3.org/2000/svg" width="76.67" height="89.985"><defs><clipPath id="a"><path fill="none" d="M0 0h76.67v89.985H0z"/></clipPath></defs><g clip-path="url(#a)"><path d="M75.666 41.13c-1.5-7.721-3.738-15.153-5.182-22.744a.921.921 0 00-1.047-.736c-4.852.813-8.821 3.706-11.988 7.311-.074-.192-.152-.382-.22-.577l.017-.026c-.007-.019-.028-.027-.04-.043q-.176-.516-.335-1.039a.479.479 0 01.231-.1l-.231-.241a.3.3 0 00-.1.01l-.078-.261.178-.1c.1-.155-.44-.1-.134-.278a.243.243 0 01.338.061c-.151-.146.225-.611.056-.956-.114-.261-.515-.161-.85-.139l-.127-.418a.333.333 0 00.045-.007c.256-.21.047-.306-.166-.39-.045-.142-.093-.282-.14-.423.1-.011.267.08.481-.127.033.144-.074.188-.036.391.4-.488-.188-.7-.384-.844-.026.074-.162.141-.085.233l-.122-.08c-.045-.131-.093-.261-.141-.391.078-.129-.048-.335.119-.457.3.01 0 .359.33.213-.009-.492-.667-1.059-1.205-1.637l-.217-.527.151-.02a1.245 1.245 0 01-.322-1.595c-.261.212-.13-.582-.672-.359l-.047-.113a1.3 1.3 0 000-.226l-.094.027-.093-.2c.074-.106.165-.213.088-.353a.586.586 0 01-.174.165c-.089-.194-.176-.389-.267-.582.088-.238.173-.47.261-.683a1.178 1.178 0 00-.3.317c.019-.136-.078-.122-.186-.089l-.079-.163a2.731 2.731 0 01.412-.235c-.011-.275-.47-.193-.659-.27q-.033-.071-.071-.141v-.037l-.015.015c-.147-.29-.3-.575-.452-.861.292-.2.459.167.7.193.061-.124.007-.286.137-.421-.29-.011-.692-.057-1.01-.1-.006-.011-.011-.024-.019-.035.537-.167.3-.547.278-.681-.215.158-.281.308-.14.459a.333.333 0 01-.241.036c-.1-.177-.2-.349-.3-.523a3.454 3.454 0 01.39-.231c-.385-.1-.3-.334-.688-.294.2-.318.15.033.351-.286L51.2 9.5c-.021-.189.385-.041.3-.306a.431.431 0 01-.557-.176L51.078 9c-.157-.046-.183-.221-.406-.1l-.041-.066.21-.27-.25.2c-.024-.035-.045-.071-.067-.106.038-.438.541-1.026-.121-1.177-.021.184-.271.213-.377.2-.093.358.428.046.586.207a1.419 1.419 0 01-.463.22c-.115-.17-.228-.34-.346-.506a3.25 3.25 0 01.219-.231c-.157-.333-.641-.127-.663-.57l.127-.088c-.538.355-.028-.319-.526-.226-.17-.213-.349-.416-.525-.622l.028-.047-.049.024c-.09-.108-.181-.219-.276-.324a2.09 2.09 0 00.188-.275c.3.131.094.381.646.2.176-.84-.689.054-.626-.789l-.6.437c-.028-.032-.061-.063-.092-.1a.372.372 0 00.17-.27.425.425 0 00-.257.178c-.155-.161-.306-.327-.466-.483a.321.321 0 00-.045-.16.8.8 0 01-.017.1c-.15-.144-.3-.278-.458-.417.007-.011.011-.019.02-.03-.015.006-.026.006-.04.011-.084-.075-.165-.153-.249-.228a.445.445 0 01.09-.024l-.172-.049a17.786 17.786 0 00-2.31-1.7c.053-.381.148-.835-.229-.791-.309.082-.313.278-.325.479-.066-.037-.131-.075-.2-.111.163-.5-.276.075-.262-.422a1.066 1.066 0 01-.064.238c-.027-.014-.051-.03-.078-.043-.489-.205-1-.423-1.532-.605a3.45 3.45 0 00-.077-.178c-.007.036-.015.094-.022.142A5.888 5.888 0 0038.95.3l.074-.3a2.148 2.148 0 01-.471.346c-.105.017-.212.028-.318.056a2.339 2.339 0 01-1.1.228c-.035-.043-.066-.075-.1-.121a.305.305 0 00-.122.057 1.376 1.376 0 00-.979-.078 1.217 1.217 0 01-.027-.219c-.027.083-.041.162-.064.245a11.189 11.189 0 00-1.623.586 2.2 2.2 0 01-.165-.24 1.528 1.528 0 00-.152.391q-.546.265-1.073.583a1.948 1.948 0 00-.085-.188l-.028.256c-.027.016-.056.031-.082.048-.083-.093-.2-.052-.254-.262.038.975-.749.082-.926.714l.273-.078a.691.691 0 01.089.177c-.087.064-.172.134-.259.2-.205-.134-.278-.077-.53-.089a2.06 2.06 0 00.077.442c-.171.139-.338.286-.5.433a.44.44 0 01-.465-.115c.153.219.137.353.083.458-.171.158-.339.323-.506.49-.01-.01-.019-.011-.028-.021a.762.762 0 01.007-.161l-.12.094c-.037-.062-.077-.1-.073-.118-.1.09.2.408-.127.32-.109-.115-.043-.186-.031-.287-.171.115-.105.423-.1.659-.089.094-.179.187-.266.283h-.019v.015q-.377.416-.74.855a1.93 1.93 0 01-.087-.207c-.162.021-.134.257-.14.49l-.266.335a1.2 1.2 0 00-.183-.1c.017.073.047.158.071.239a5.73 5.73 0 00-.148.2h-.038l.027.02c-.137.183-.275.367-.41.554a.579.579 0 01-.161.033l.054.113c-3.737 5.257-6.336 12.227-8.069 17.353a6.912 6.912 0 00-.549-.544 25.146 25.146 0 00-3.77-3.289 2.8 2.8 0 00-.616-.689 8.29 8.29 0 00-1.375-.556A19.192 19.192 0 007 17.871a.7.7 0 00-.789.552c-.876 4.457-1.922 8.884-2.945 13.33v.006c-.726 3.132-1.44 6.276-2.066 9.452a51.658 51.658 0 00.314 23.505 33.347 33.347 0 0024.641 23.961c2.884.9 5.922.7 8.88 1a38.289 38.289 0 0025.76-5.923C74.69 74.8 78.828 56.585 75.666 41.13m-3.791 25.047c-.191.5-.4.992-.614 1.484.009-.069.021-.136.031-.188l-.22.646a32.466 32.466 0 01-7.133 10.239c-.239.219-.491.423-.736.635h-.019a3.665 3.665 0 00-2.378 1.252c-.676.713-.369.7.011.641-.27.193-.547.375-.822.559-.553-.162-.694.739-1.682.845.074.024.228 0 .307.045a35.1 35.1 0 01-7.091 3.293c-.188 0-.407.011-.671.025a.9.9 0 00.155.144c-.59.188-1.183.366-1.779.522a51.3 51.3 0 01-7.982 1.256l.188-.277c-.468.127-.959.245-1.456.353a16.474 16.474 0 00-.58-2.616c.021-.2.042-.4.066-.6l.1.04.061-1.453c.4-3.33.926-6.962 1.594-10.761.085-.069.156-.069.205.016l.131-1.55a.438.438 0 00-.036-.119c.085-.465.171-.93.261-1.4l.214-.145c.257-.556-.153-1.261.266-1.554.249-.14.161.454.132.877.093-.955.907-2.472 1.276-4.365a2.648 2.648 0 00-.3-2.235q.252-1.078.521-2.159c.024.036.047.061.073.048a3.987 3.987 0 00.522-2.367q.264-1 .539-1.991c.152-.122-.032 1.011.462.39-.207.718-.325.713-.622 1.708.926-1.44 1.029-3.526 1.188-4.569a2.217 2.217 0 00-.416.875l.131-.97c.153-.517.307-1.034.466-1.547.266-.2.631-1.714.934-1.927.088.645-.622 1.591-.254 1.613.789-2.121 1.644-5.758 2.767-9.256.417-1 .846-1.991 1.291-2.955l.032.168c.084-.278.184-.574.3-.88q1.019-2.151 2.133-4.139A10.1 10.1 0 0155 31.915c-.464.161 1.472-2.106 1.367-2.741.281-.393.569-.772.856-1.148.049-.054.084-.1.141-.16v-.024c.025-.033.049-.068.075-.1a.944.944 0 00.772-.935l.079-.1a2.816 2.816 0 00.833-.73 1 1 0 01-.3.108 29.073 29.073 0 012.263-2.3 15.775 15.775 0 012.076-.99 1.334 1.334 0 00-.8.088c.46-.251.553-.419.573-.564.259-.181.523-.353.787-.52a.663.663 0 01.267.363 4.483 4.483 0 001.521-1.192 5.223 5.223 0 01.589-.438c.23-.1.464-.191.7-.28a1.466 1.466 0 01.15-.036l-.027-.01a14.683 14.683 0 011.938-.573c.071.375.141.749.217 1.122-.135.1-.25-.072-.343-.233a35.66 35.66 0 00-.172-.351c-.083-.056-.27.108-.344.158.028.061.119.041.129.131a.864.864 0 01-.119.372c.136-.021.314.031.526.276.229.46.462.924.671 1.35.014.056.025.113.038.17-.7-.577-.2 1.694-.092 2.336.233-.179.256-.683-.014-1.678.125.016.235.189.338.424q.327 1.5.674 3c-.1.109-.288.064-.459.071a22.047 22.047 0 001.145 2.937c-.145.869-.231-.5-.376.364l.579 1.058c.114.851-.541-.778-.306.538a4.3 4.3 0 01.886 2.127l-.184-.266c.262.624.364 1.5.672 1.485l.068.293-.217.64.312-.221.074.327c.191 1.917-.416 2.955.518 5.432 0-.679.328-.121.471.217.059-1.2-.558-1.349-.831-2.418.152-.1.385.137.6.358.125.615.252 1.23.366 1.846.068.356.12.719.179 1.078a1.22 1.22 0 01-.3.38c.2 1.738.787 2.337.72 4.134l-.158-.038c.647.254-.051 1.286.418 2.451.035 1.3.021 2.593-.048 3.889l-.126.167.111.174a43.14 43.14 0 01-.167 1.935 1.333 1.333 0 00-.421.366c.075-1.424.322-1.653-.136-2.784-.765 2.31.412 2.053-.525 4.671l.693.63c-.031.193-.067.385-.1.578-.1-.064-.212-.054-.375.329.027.317.119.375.241.319a41.651 41.651 0 01-.765 3.174c-.092.2-.181.4-.251.589.062-.1.113-.182.158-.246-.278.955-.589 1.9-.94 2.827-.01 0-.019.01-.03.011a.333.333 0 010 .049M19.749 83.489a32.044 32.044 0 00-1.209-.3 31.914 31.914 0 01-4.753-3.106.5.5 0 00.146-.121l-.565-.231a29.24 29.24 0 01-.47-.4c-.09-.181-.356-.448-.052-.433-2.116-.944-2.017-2.262-3.641-3.795l.695 1.055a.221.221 0 01-.178.043c-.348-.4-.677-.822-1-1.244a1.958 1.958 0 00-.155-.468 7.83 7.83 0 01-.551-1.163 5.74 5.74 0 00-.848-.6 33 33 0 01-1.63-2.986c-.162-.479-.288-.927-.136-1.1-.213.006-.4-.171-.561-.424a36.1 36.1 0 01-1.335-3.67c.059.1.172.265.266.454-.069-.231-.16-.457-.212-.693.084.047.125.009.16.087-.145-.627-.567-.525-.481-1.418.155-.032.266.411.412.755a7.931 7.931 0 00-.931-2.261q-.213-1-.382-2.013a.112.112 0 010-.028l-.011-.015a45.54 45.54 0 01-.567-5.631 3.734 3.734 0 01.251.523 7.43 7.43 0 00-.3-2.157q-.007-1.125.038-2.247a.559.559 0 00.182-.166c-.036-.2-.092-.4-.139-.612.022-.445.042-.892.077-1.338.017-.027.027-.057.048-.084l-.042.006a56.66 56.66 0 01.355-3.228 6.017 6.017 0 01.27-.8c-.033-.144-.059-.29-.093-.434a71.59 71.59 0 01.3-1.758 160.31 160.31 0 011.164-5.945l.017-.036h-.01c1.157-5.363 2.494-10.715 3.552-16.134 4.419.927 8.054 3.761 10.966 7.214a.8.8 0 00.684.836 40.424 40.424 0 012.6 3.716 82.044 82.044 0 018.03 18.343 193.748 193.748 0 017.57 38.265c0 .038.009.1.014.157a24.4 24.4 0 01-4.426-.192c-.126-.058-.255-.105-.38-.168a6.987 6.987 0 00-.617-.022c-.325-.067-.652-.12-.973-.207a25.949 25.949 0 00-3.231-.792.378.378 0 01.139-.191c-.21.032-.423.047-.634.072-.137-.033-.276-.062-.413-.1a34.211 34.211 0 01-6.9-2.46.8.8 0 01-.113-.356M8.231 74.349c-.219-.309-.416-.631-.622-.947.272.3.533.61.746.878a.722.722 0 01.024.25c-.047-.063-.1-.119-.147-.182m-6.494-21.5l.051.361a.629.629 0 01-.038.072c0-.145-.009-.288-.012-.433m19.214-29.434c.173.152.44.319.234.543l-.361-.116.127-.427m.683-.964c-.051 0-.163-.038-.141.045l-.2-.177.122-.355c-.021.2-.09.341.332.359.157-1.164 1-2.535 1-3.972l.148.292c-.173-.761.658-.7.293-1.368l.041-.1.26.163c.142-.141-.025-.412-.057-.627.038-.085.074-.171.113-.256a.433.433 0 01.151-.048l-.115-.032.074-.16c0-.006.014-.007.017-.016h-.01c.057-.126.116-.251.174-.377a.1.1 0 00.051-.109c.052-.11.1-.22.153-.33.03.038.048.084.072.106.026-.443.351-.544.3-.861.132-.267.264-.535.4-.8a.352.352 0 00.244-.054.535.535 0 00-.048-.307 34.436 34.436 0 011.89-3.146l.015.01-.012-.014c2.365-3.474 5.427-6.343 9.548-7.416.308 0 .551-.332.849-.492a1.432 1.432 0 01.935.051c.6.4 1.2.208 1.787.431 8.028 1.84 14.539 15.379 16.322 23.4a41.568 41.568 0 00-2.825 4.057c-8.961 15.288-12.275 32.865-14.893 50.222-.539-3.211-1.293-6.93-1.277-8.223-.109-1.126-.632-1.244-1.021-2.612l.212-.692c-.348-.713-.463-3.078-.839-2.155a4.221 4.221 0 01.423 1.262l-.209-.067.355 1.469-.183-.238a244.299 244.299 0 00-.8-3.914c.228.486.53.83.642.688-.187-.546-.2-1.307-.4-1.365-.026.1-.146.116-.024.48l-.366-.518q-.252-1.162-.521-2.322c.335 1.141.5 2.32.8 1.516-1.516-5.921-3.346-14.246-6.438-20.7l.629.982c-1.6-3.025-1.441-4.677-3.059-6.735-.071-.156-.141-.311-.213-.466l.4.1a8.449 8.449 0 00-1.305-2.131c-.082-.111-.158-.226-.235-.341q-.373-.737-.766-1.463c-.054-.15-.111-.3-.153-.462l-.04.109a46.721 46.721 0 00-3.009-4.814.915.915 0 00.16.113c-.33-.369-.6-.71-.848-1.038-.061-.079-.12-.16-.182-.239s-.109-.141-.157-.207a.889.889 0 01.828.445c.371-.455-.5-1.148-.3-1.664.066.079.2.1.29.155.084-.629.152-1.42.488-1.575.158-.171-.314-.363-.344-.653l.359-.01c-.16-.2.32-.507-.251-.533-.052 0 .209.2.079.288l-.176-.079-.024.292-.11-.089c.075-.241.15-.481.23-.721a.73.73 0 00.407.3c-.036-.125.146-.212-.03-.291m.286-1.25a.691.691 0 01-.179-.178c.026-.072.048-.144.074-.214.114.134.215.278.105.392m-.256.049l.032.075c-.035 0-.054.028-.075.051l.043-.126m34.884.937c-.015-.049-.027-.1-.043-.148a.232.232 0 01.064.141l-.021.007M47.8 46.88a.141.141 0 00-.124 0c.031-.092.064-.183.1-.273a.4.4 0 01.027.277m-5.327 18.923a5.859 5.859 0 01-.148.8.116.116 0 01-.02 0c.056-.267.114-.535.168-.8m.586-2.685l-.129 1.461a1.418 1.418 0 00-.126-.317c.084-.381.168-.762.255-1.145m-4.585 18.445c-.051-.267-.1-.533-.132-.812.073.174.146.209.219.233l-.087.579m-.079.527c-.032.214-.064.428-.1.642q-.228-1.648-.48-3.292c.219.856.421 1.779.575 2.65m-.953-5.075l-.106-.642c.053-.16.141-.27.247-.17.586 1.82.113.766-.141.812m-.672-4.025c-.139-.783-.291-1.563-.437-2.343a3.7 3.7 0 01.823 2.29zm2.55 12.789a6.854 6.854 0 01.166.918c-.059.291-.156.2-.26.015.031-.309.061-.616.094-.933m-6.182-29.359a4.243 4.243 0 01.718 1.72 2.12 2.12 0 01-.411-.565c-.1-.385-.205-.77-.307-1.154m.8 2.759a1.874 1.874 0 00.066.605c-.079-.322-.15-.647-.23-.969.053.121.111.241.165.364M20.891 24.514c.183.423-.042.145-.286.068.011-.041.025-.082.036-.122a.464.464 0 01.25.054m-.648 1.538c.077-.334.152-.668.239-1 .1.437.077.9-.239 1m.539.511c-.205.051-.306-.161-.454-.241-.063.073-.172.121-.178.205l-.015-.02c.031-.147.071-.291.1-.437a.454.454 0 01.543.492m18.35 61.216v-.037l.026-.259c.139-.155.316-.068.5.241-.017 0-.035.007-.052.011l-.478.043M71.81 32.8a2.6 2.6 0 01-.476-1.5c.077.142.144.257.207.355l.27 1.143M56.634 22.471v-.01h.007zm-.022-.737a1.53 1.53 0 00-.191.009c-.019-.062-.036-.125-.053-.187zm-1.323-3.316l-.021-.049a.182.182 0 01.12 0 .682.682 0 00-.1.047m-4.137-8.929a1.044 1.044 0 00-.111 0c-.04-.067-.083-.132-.124-.2.141-.021.24.014.235.2M31.34 2.679a.629.629 0 01.114.1c-.074.057-.148.114-.221.173a.793.793 0 01.108-.276m-3.218 3.362c.012 0 .016.009.027.014l-.047.058c.007-.025.01-.046.02-.072"/><path d="M42.411 68.77a1.258 1.258 0 01-.014-.366.873.873 0 00.014.366m1.429-7.834l.251-.177-.3.1zm2.215-8.09a1.874 1.874 0 00.145-.551 1.72 1.72 0 00-.145.551m22.03-31.85a.7.7 0 00.141-.161.4.4 0 00-.2.109c.031-.012.067-.015.054.052m1.29 3.97c-.02.011-.03.045-.052.053.077.183.078.115.052-.053m-4.846-2.571a4.69 4.69 0 00-1.368.4c.234.075.367.009 1.368-.4m-8.201 7.545c-.145.332.054.22.01.49.416-.6.459-.87-.01-.49m12.413-6.696l.217.516-.636-1.96zm2.917 10.291a1.126 1.126 0 00-.353-.51zM3.774 64.997l.142.433a1.1 1.1 0 00-.142-.433m52.674-43.98l.176-.11-.245.121zm-.49-1.565c.011-.031 0-.064-.049-.1-.021.032 0 .064.049.1m-2.853-8.379a.405.405 0 00-.139.1 1.733 1.733 0 00.235 0c-.046-.019-.093-.032-.1-.1m.599 1.339a2.985 2.985 0 00-.231.454.465.465 0 00.231-.454m.592 2.331c.084.04.162-.043.283-.045-.042-.145-.165-.141-.283.045m-1.683-4.199l-.145-.042.387.241zM21.1 25.648a.162.162 0 00-.093-.125l-.033.217z"/></g></svg>