<svg xmlns="http://www.w3.org/2000/svg" width="85.17" height="99.362"><defs><clipPath id="a"><path fill="none" d="M0 0h85.17v99.362H0z"/></clipPath></defs><g clip-path="url(#a)"><path d="M83.761 44.091l.092-.1-.445-.161-.011.031q-.529-.349-1.048-.71l-.007-.028c-.019-.011-.041-.009-.059-.017-.431-.3-.857-.6-1.284-.9a.343.343 0 01.114-.21l-.432-.122c-.028.009-.048.037-.072.058l-.318-.225.066-.193c-.056-.212-.491.137-.384-.207.077-.207.236-.147.36-.124-.273-.063-.376-.734-.854-.986-.346-.194-.612.116-.89.324-.17-.115-.343-.228-.513-.341a.118.118 0 00.024-.043c.032-.351-.251-.332-.526-.3-.176-.114-.355-.223-.532-.334.078-.074.327-.067.32-.395.168.121.118.22.343.4-.1-.7-.845-.579-1.158-.611.047.085-.012.226.146.273l-.2-.011q-.241-.145-.484-.285c-.036-.178-.377-.306-.344-.518.28-.162.353.338.509.016a6.97 6.97 0 00-2.718-.885c-.233-.122-.468-.24-.7-.358l.113-.1a3.449 3.449 0 01-.689-.187c-.158-.078-.32-.148-.48-.225a1.6 1.6 0 01-.749-.848c-.007.332-.718-.408-.977.09l-.192-.079c-.051-.047-.116-.083-.218-.161l-.037.056c-.109-.042-.22-.077-.329-.118a.415.415 0 00-.298-.32.515.515 0 01.021.231c-.3-.106-.6-.217-.9-.311-.176-.239-.353-.471-.506-.69a.961.961 0 00.1.453c-.137-.122-.205-.046-.261.054l-.25-.068a1.827 1.827 0 01.093-.479c-.332-.2-.635.2-.89.286-.074-.016-.15-.027-.224-.042-.015-.014-.03-.016-.045-.035v.026q-.7-.139-1.409-.223c-.02-.364.59-.29.823-.438-.094-.145-.346-.2-.408-.381-.272.228-.676.532-.979.766h-.047c.238-.543-.45-.6-.657-.627a.4.4 0 00.49.367.279.279 0 01-.165.228c-.051 0-.1-.011-.148-.014-.249.006-.49.037-.735.056a1.857 1.857 0 01-.022-.478c-.424.313-.688.145-.9.515-.285-.293.141-.136-.146-.431l-.282.377c-.262-.036.2-.39-.208-.389a.631.631 0 01-.585.492l.061-.134c-.165.146-.422.119-.372.4l-.1.025-.25-.3.134.334c-.032.007-.063.017-.094.025-.578-.071-1.085-.787-1.683-.122.228.061.126.317.059.429.406.16.294-.413.59-.554a1.057 1.057 0 01.031.51c-.277.083-.551.182-.824.276a2.019 2.019 0 01-.191-.283c-.5.108-.5.65-1.067.6l-.043-.148c.162.624-.418-.024-.549.538-.345.145-.687.3-1.028.453l-.056-.052v.075c-.174.079-.351.155-.525.238a1.677 1.677 0 00-.247-.262c.308-.309.506-.042.578-.652-.933-.346-.29.745-1.263.535l.2.731-.161.079a.3.3 0 00-.233-.229.329.329 0 00.071.307c-.267.131-.535.262-.8.4a.551.551 0 00-.234.014.664.664 0 01.119.043l-.763.381-.007-.007v.012c-.136.073-.269.151-.4.224.006-.027.011-.059.017-.077l-.111.129q-1.711.928-3.375 1.936c-.348-.2-.732-.463-.932-.072-.126.329.026.426.2.513-.08.049-.16.1-.24.152-.329-.324-.125.323-.583.08a.836.836 0 01.178.176c-.63.4-1.256.8-1.877 1.205-.068-.012-.141-.025-.233-.036.028.031.075.075.115.115q-.488.321-.974.651c-.132-7.648-.364-18.421-.455-25.781l-.037-2.668c0-.226-.009-.453-.007-.679a4.387 4.387 0 00.668.892.7.7 0 01-.129.083c.072.007.139 0 .209 0a15.793 15.793 0 001.888 1.5 1.432 1.432 0 01-.1.262 1.973 1.973 0 00.444 0c.053.04.106.079.157.119q.592.425 1.208.828a1.321 1.321 0 00-.11.127l.236-.046c.047.031.1.059.145.09-.02.11.071.217-.1.334 1-.349.6.721 1.37.75l-.256-.285a.525.525 0 01.1-.106c.134.079.272.152.408.23-.006.243.1.311.241.57a1.983 1.983 0 00.424-.194c.287.156.577.3.869.452a.441.441 0 01.118.479.421.421 0 01.426-.2c.308.15.621.291.934.431 0 .015 0 .026-.009.041a1.065 1.065 0 01-.192.03l.182.106c-.049.054-.064.1-.093.105.168.087.359-.307.453.061-.069.141-.192.088-.317.1.235.163.568.009.85-.062.162.067.325.127.489.192 0 .012.012.017.016.031a.119.119 0 01.021-.016q.754.293 1.521.548a1.151 1.151 0 01-.24.183c.135.168.438.047.752-.011.173.053.348.1.522.151a1.191 1.191 0 00-.007.247c.1-.045.217-.119.32-.161l.228.063a.247.247 0 01.056.119l.021-.1c.288.077.575.148.865.215a.886.886 0 01.224.226l.166-.141c.716.155 1.438.291 2.163.384l.014.017v-.015a21.712 21.712 0 009.082-.679c5.742-1.651 10.764-5.074 15.118-9.088a1.426 1.426 0 00.512-.849 1.2 1.2 0 00-.558-.8c-.228-.2-.462-.395-.69-.593l.1-.093-.432-.212-.007.015c-.749-.64-1.5-1.272-2.275-1.886a.335.335 0 01.129-.187l-.428-.153c-.03.006-.049.033-.073.051-.1-.082-.21-.158-.314-.239l.077-.191c-.045-.217-.5.1-.372-.235.088-.2.244-.132.367-.1-.269-.087-.339-.771-.823-1.041-.361-.22-.647.114-.945.307-.166-.119-.334-.234-.5-.35a.208.208 0 00.061-.072c.041-.381-.3-.33-.6-.3a21.849 21.849 0 00-.478-.314c.017-.127.346-.048.344-.433.168.129.114.231.34.418-.1-.709-.838-.624-1.163-.645.048.085-.011.225.151.271l-.324-.015a20.719 20.719 0 00-.372-.23c.024-.2-.392-.335-.355-.573.278-.156.356.348.511.024a6.152 6.152 0 00-2.683-.85c-.261-.127-.533-.235-.8-.355l.1-.1a3.1 3.1 0 01-.563-.105c-.233-.1-.459-.212-.7-.306a1.777 1.777 0 01-.752-.755c.009.348-.761-.392-.977.148-.052-.016-.1-.036-.155-.053a1.173 1.173 0 00-.266-.177l-.043.072-.04-.031c-.1-.033-.2-.059-.3-.092a.4.4 0 00-.309-.278.469.469 0 01.035.193c-.309-.1-.619-.184-.93-.261a13.289 13.289 0 00-.535-.619.908.908 0 00.129.434c-.121-.085-.187-.043-.234.033l-.288-.056A2.135 2.135 0 0167.29.88c-.308-.156-.562.157-.788.292a18.653 18.653 0 00-1.734-.162c-.014-.35.564-.276.789-.458-.105-.121-.347-.17-.412-.355-.254.236-.641.554-.937.793h-.04c.241-.564-.436-.589-.626-.646a.378.378 0 00.468.377.306.306 0 01-.221.266c-.264 0-.527.007-.791.02a1.531 1.531 0 01-.016-.517c-.421.3-.664.137-.891.492-.272-.328.151-.116-.122-.444l-.311.334c-.26-.054.217-.375-.184-.4a.646.646 0 01-.6.476l.064-.131c-.179.147-.444.105-.381.438l-.078.012L60.215.9l.126.384c-.645-.063-1.115-.923-1.789-.238.225.071.109.327.032.431.4.186.318-.4.621-.536a1.236 1.236 0 01-.007.578q-.408.091-.814.2a1.881 1.881 0 01-.2-.322c-.528.056-.537.625-1.1.553l-.037-.151c.135.636-.417-.032-.584.506q-.546.189-1.083.4l-.026-.026v.036c-.189.075-.377.15-.564.229a1.954 1.954 0 00-.215-.235c.329-.293.517-.022.609-.638-.923-.355-.322.736-1.308.5l.179.7c-.057.025-.114.049-.17.075a.278.278 0 00-.21-.186.322.322 0 00.037.27c-.292.139-.584.278-.87.426a.424.424 0 00-.157.014.553.553 0 01.078.028c-.247.129-.492.261-.735.395l-.007-.007v.012c-.041.024-.083.045-.124.067l-.281.161c.006-.025.011-.057.017-.074l-.115.13c-1.133.651-2.278 1.3-3.4 1.985-.351-.192-.737-.436-.932-.043-.114.325.028.421.2.5l-.24.151c-.313-.272-.105.346-.563.124a1.686 1.686 0 01.161.13c-.643.417-1.267.857-1.877 1.314-.057-.007-.109-.015-.178-.021.021.024.059.058.089.087a23.4 23.4 0 00-2.3 1.967l-.179-.147.106-.1-.432-.212c0 .012-.01.017-.014.028q-.5-.41-.989-.822v-.027c-.017-.011-.037-.011-.054-.021q-.612-.51-1.229-1.015a.354.354 0 01.13-.2l-.429-.153a.226.226 0 00-.079.056c-.1-.083-.2-.165-.307-.246l.075-.188c-.043-.218-.5.1-.372-.236.088-.2.244-.131.367-.1-.268-.085-.339-.771-.825-1.041-.348-.213-.625.089-.912.283-.167-.122-.34-.238-.511-.358a.149.149 0 00.035-.042c.038-.353-.255-.335-.536-.309-.174-.119-.354-.233-.532-.348.071-.079.335-.052.333-.395.17.13.114.231.34.419-.094-.71-.839-.624-1.164-.645.048.085-.011.225.151.271l-.23-.011c-.157-.1-.314-.193-.474-.286-.043-.176-.384-.3-.349-.522.277-.156.356.349.512.025a5.914 5.914 0 00-2.6-.835c-.282-.142-.569-.271-.855-.4l.068-.068a3.116 3.116 0 01-.367-.069 20.584 20.584 0 00-.981-.4 1.7 1.7 0 01-.666-.693c.01.343-.741-.372-.97.125l-.192-.059a1.988 1.988 0 00-.24-.146l-.035.061-.349-.1a.394.394 0 00-.311-.277.469.469 0 01.038.21 29.034 29.034 0 00-.882-.213c-.2-.247-.406-.484-.59-.683a.905.905 0 00.13.436c-.157-.111-.22-.009-.27.108l-.245-.043a1.709 1.709 0 01.056-.5c-.47-.238-.815.625-1.13.262l.014.073a23.946 23.946 0 00-1.4-.14c-.1-.426.521-.346.757-.532-.105-.121-.348-.172-.413-.356-.267.251-.692.6-.991.839.3-.614-.416-.635-.614-.693a.381.381 0 00.469.379c-.025.209-.167.255-.316.3-.224-.006-.448 0-.673 0a1.27 1.27 0 01-.026-.536c-.412.3-.647.129-.877.48-.256-.327.151-.113-.107-.445l-.312.329c-.255-.074.228-.354-.168-.413a.658.658 0 01-.617.433l.071-.131c-.178.14-.432.094-.4.408-.028 0-.058 0-.088.007L18.6.8l.1.369-.047.006c-.6-.1-1.037-.992-1.719-.337.218.078.089.332.007.434.389.205.333-.412.65-.5a1.182 1.182 0 01-.041.563c-.278.046-.556.1-.834.155a2.06 2.06 0 01-.166-.313c-.522.048-.577.586-1.147.468l-.028-.151c.1.626-.4-.035-.6.473-.376.109-.751.229-1.122.356l-.024-.025v.033c-.194.067-.389.131-.582.2a1.8 1.8 0 00-.2-.236c.339-.3.515-.017.643-.615-.927-.418-.356.728-1.335.463l.145.694-.176.075a.282.282 0 00-.2-.191.315.315 0 00.026.266c-.3.13-.6.264-.89.406a.443.443 0 00-.16.014.457.457 0 01.075.03c-.251.122-.5.247-.752.381v.007c-.072.038-.146.071-.218.11l-.2.116c.007-.028.015-.062.022-.082-.045.045-.085.1-.127.142a64.406 64.406 0 00-3.423 2.018c-.359-.181-.757-.418-.949-.011-.111.33.04.419.213.5l-.241.157c-.335-.276-.1.34-.572.141a1.36 1.36 0 01.171.13c-.64.448-1.253.923-1.844 1.418-.056 0-.106-.009-.174-.01.022.022.063.053.093.079a17.142 17.142 0 00-2.415 2.475l-.162-.1a1.593 1.593 0 010 .308c-.028.037-.062.071-.09.109-.245.4-.509.953-.054 1.32a5 5 0 01.777.687 1.966 1.966 0 00-.033.2 1.421 1.421 0 00.317.161 3.164 3.164 0 01.411.8c.155.163.333.3.492.463a.744.744 0 01-.213.2c.121-.017.24-.043.361-.063a25.011 25.011 0 001.648 1.491 1.522 1.522 0 01-.11.257 1.845 1.845 0 00.474.015c.434.34.869.677 1.324.989a1.229 1.229 0 00-.11.122l.223-.037c.054.037.1.08.157.116 0 .1.061.2-.1.306 1.016-.342.594.734 1.372.777l-.254-.292a.522.522 0 01.11-.119c.132.08.265.161.4.239-.009.247.1.307.247.575a1.915 1.915 0 00.411-.183c.283.152.575.286.865.429a.462.462 0 01.147.5.423.423 0 01.491-.2c.293.136.58.283.877.41-.006.019 0 .032-.01.051a1.046 1.046 0 01-.192.03l.184.106c-.048.056-.064.105-.092.106.17.087.353-.306.454.058-.068.146-.191.093-.317.1.249.162.6-.019.883-.092.15.057.3.105.452.16a.315.315 0 01.033.064.254.254 0 01.046-.036c.5.183 1 .382 1.512.537a1.307 1.307 0 01-.234.183c.148.177.474.019.807-.037.156.045.314.078.47.119a1.906 1.906 0 000 .291 1.759 1.759 0 01.417-.186l.109.027a.248.248 0 01.083.153l.025-.126c.285.068.564.155.85.215a.9.9 0 01.241.234l.172-.152c.711.14 1.428.247 2.146.334l.027.032v-.027a29.323 29.323 0 003.1.221c6.258-.214 11.635-3.394 16.669-6.674 1.209-.8 2.477-1.753 3.662-2.61l.027-.02c.015.375.012.75 0 1.125l-.011.012c0 .01.01.017.011.027l-.02 1.451a.366.366 0 01-.2 0l.145.381c.015.01.036.007.052.014v.367l-.158.041c-.105.105.136.212.153.3v.019c-.006.026-.036.051-.115.072-.214.046-.252-.1-.3-.205.1.235-.4.641-.353 1.117.026.35.424.4.747.51l-.007.558c-.014 0-.033-.011-.045-.009-.322.145-.139.355.036.553l-.007.551c-.106-.007-.225-.228-.517-.063.017-.184.134-.192.168-.447-.547.4-.067.907.066 1.163.051-.074.2-.093.161-.235l.114.2c0 .16 0 .312-.007.474-.14.1-.085.422-.294.489-.273-.145.125-.421-.234-.4a5.932 5.932 0 00.473 2.423c0 .255-.007.506-.012.762l-.121-.042a2.12 2.12 0 01.114.444l-.011.7a1.328 1.328 0 01-.464.846c.322-.1-.116.705.433.765v.182c-.027.057-.038.121-.077.229l.072.016c0 .1 0 .205-.006.308a.346.346 0 00-.2.325.519.519 0 01.2-.077l-.016.813c-.183.208-.36.412-.532.588a.987.987 0 00.41-.178c-.077.135.006.178.111.2v.235a2.218 2.218 0 01-.465.015c-.115.3.312.484.452.678v.22c-.006.009 0 .016-.014.025h.014l-.022 1.214c-.355.036-.311-.464-.506-.638-.115.1-.152.3-.333.367a10.812 10.812 0 01.829.742v.042c-.561-.172-.552.387-.6.546.267-.03.4-.148.354-.4a.3.3 0 01.239.135c0 .245-.009.489-.014.734a2.59 2.59 0 01-.463-.01c.276.356.094.549.433.763-.345.2-.105-.134-.452.066l.313.285c-.089.209-.343-.217-.423.11a.51.51 0 01.363.558l-.119-.073c.111.162.01.379.309.392v.077l-.355.139.353-.035v.09c-.241.464-1.063.685-.611 1.334.129-.167.344-.015.423.074.287-.288-.3-.355-.348-.629a1.211 1.211 0 01.518.116c0 .247-.009.494-.014.741a2.241 2.241 0 01-.345.077c-.08.438.428.605.173 1.05l-.153-.014c.651.078-.194.33.294.636l-.016.98-.072.026.071.025c0 .171-.006.339-.009.51a1.838 1.838 0 00-.345.1c-.137-.361.186-.419-.343-.7-.694.6.548.509-.066 1.2l.741.125v.158a.318.318 0 00-.3.093.354.354 0 00.3.068c0 .266-.009.536-.014.8a.446.446 0 00-.092.181.629.629 0 01.09-.072c0 .251-.009.5-.012.754h-.019a.108.108 0 00.019.015c0 .136 0 .266-.006.4a.624.624 0 01-.056-.045l.054.135c0 .33-.009.652-.014.98a.692.692 0 000 .285c-.01.741-.022 1.492-.031 2.22-.351.168-.767.338-.544.666a.364.364 0 00.537.1v.254c-.439.094.212.25-.236.476a.964.964 0 01.231-.049c-.006.669-.014 1.339-.019 1.995-.047.042-.1.087-.155.145.04 0 .1-.015.153-.022 0 .214 0 .44-.006.653.012.617-.045 1.236.021 1.855l-.291-.056a2.28 2.28 0 01.37.484 3.1 3.1 0 00.093.385 2.992 2.992 0 01.116 1.273c-.045.035-.08.068-.129.1a.408.408 0 00.047.152 2.247 2.247 0 00-.26 1.086 1.093 1.093 0 01-.22-.024l.223.146.063 1.964a1.515 1.515 0 01-.287.072 1.823 1.823 0 00.3.334l.047 1.429a1.838 1.838 0 00-.205-.02l.21.181v.109c-.126.025-.15.172-.361.1.848.557-.282.776.114 1.352l.1-.32a.565.565 0 01.182.028c0 .131.009.262.012.395-.226.11-.225.218-.386.448a2.256 2.256 0 00.407.244q.011.408.024.815a.422.422 0 01-.369.318.4.4 0 01.386.257l.026.883c-.015 0-.022.009-.04.007a.871.871 0 01-.111-.137l-.015.183c-.069-.017-.121-.011-.135-.032 0 .163.434.165.147.377-.157 0-.165-.118-.23-.212-.035.234.229.436.408.629 0 .148.009.3.014.448l-.8-.668v-.026c-.016-.011-.036-.011-.053-.021q-.611-.509-1.225-1.012a.343.343 0 01.129-.2l-.427-.153a.22.22 0 00-.079.056L39 65.018l.075-.189c-.043-.217-.5.105-.371-.234.088-.2.243-.132.366-.1-.267-.085-.338-.771-.822-1.039-.348-.213-.625.089-.911.285-.167-.122-.34-.238-.51-.358a.173.173 0 00.035-.042c.038-.353-.255-.334-.535-.308-.176-.119-.353-.233-.53-.348.069-.079.334-.052.333-.393.168.129.113.23.339.417-.094-.708-.836-.622-1.162-.643.048.085-.011.225.15.271l-.231-.011c-.156-.1-.312-.194-.47-.287-.045-.173-.382-.3-.348-.518.277-.157.355.346.511.022a5.913 5.913 0 00-2.6-.834 21.848 21.848 0 00-.85-.4l.069-.069a3.343 3.343 0 01-.369-.068c-.323-.144-.65-.277-.977-.4a1.71 1.71 0 01-.662-.693c.01.341-.736-.371-.968.124-.064-.02-.129-.041-.193-.059a1.611 1.611 0 00-.236-.147l-.036.062c-.116-.033-.231-.068-.349-.1a.39.39 0 00-.307-.275.478.478 0 01.037.209 26.201 26.201 0 00-.88-.212c-.2-.25-.4-.488-.586-.685a.915.915 0 00.129.434c-.157-.111-.22-.009-.27.108l-.244-.042a1.712 1.712 0 01.056-.5c-.406-.2-.719.412-1 .346h-.011a.24.24 0 01-.116-.08l.014.069c-.464-.059-.928-.11-1.393-.144-.08-.416.537-.329.773-.521-.105-.121-.346-.171-.411-.355-.269.25-.693.6-.992.839.306-.615-.412-.635-.61-.693a.379.379 0 00.468.377c-.026.205-.166.255-.312.3-.225-.006-.449-.006-.674-.006a1.229 1.229 0 01-.026-.536c-.412.3-.646.127-.876.479-.255-.332.15-.114-.106-.445l-.312.329c-.254-.074.228-.355-.167-.413a.646.646 0 01-.617.427l.072-.131c-.179.141-.433.094-.4.413l-.087.006-.229-.358.1.369-.048.006c-.594-.1-1.028-.987-1.712-.344.218.079.089.333.006.434.386.2.335-.4.651-.494a1.176 1.176 0 01-.042.562c-.278.045-.556.1-.833.151a2.1 2.1 0 01-.166-.316c-.52.048-.575.586-1.145.468l-.028-.152c.094.625-.406-.045-.6.47-.375.108-.749.224-1.119.35l-.024-.024v.032c-.194.067-.389.132-.58.2a1.821 1.821 0 00-.2-.24c.337-.3.517-.006.646-.609-.926-.423-.36.721-1.335.455l.145.689a9.28 9.28 0 00-.176.074.281.281 0 00-.2-.189.308.308 0 00.025.265c-.3.129-.6.26-.893.4a.414.414 0 00-.155.012.53.53 0 01.073.028q-.377.184-.75.38v.006c-.1.052-.2.1-.3.152l-.119.066c.007-.025.012-.056.02-.072-.04.041-.077.084-.116.125q-1.761.928-3.414 2.027c-.36-.182-.761-.427-.953-.016-.115.344.052.428.235.506-.08.057-.158.115-.239.172-.363-.318-.12.32-.6.116a.726.726 0 01.2.171q-.915.663-1.792 1.375a5.894 5.894 0 00-.249-.015c.031.031.083.073.129.111-.229.188-.465.366-.692.558a9.174 9.174 0 00-1.849 1.885l-.162-.091a1.168 1.168 0 01.031.3c-.037.066-.083.121-.119.189-.262.436-.5.987 0 1.35a3.126 3.126 0 01.646.491.548.548 0 01-.009.177 1.1 1.1 0 00.323.161 4.512 4.512 0 01.556.926c.118.106.24.208.359.312a.571.571 0 01-.205.16h.384c.562.489 1.138.964 1.735 1.418a1.474 1.474 0 01-.105.26 1.968 1.968 0 00.452 0q.663.494 1.351.955a1.461 1.461 0 00-.111.125l.231-.043c.051.033.1.069.15.1-.01.1.064.207-.1.318.991-.328.588.726 1.362.76l-.255-.283a.485.485 0 01.094-.1c.137.083.276.165.413.245 0 .225.1.294.234.558a1.9 1.9 0 00.418-.188c.3.165.6.323.9.478a.416.416 0 01.092.449.409.409 0 01.4-.2c.314.155.632.3.952.447 0 .011 0 .02-.006.03a.963.963 0 01-.193.03l.182.106c-.049.054-.066.1-.094.1.168.088.363-.3.454.062-.071.141-.192.088-.318.1.235.156.563.012.841-.052.165.069.329.136.494.2 0 .01.01.014.014.025l.017-.012c.5.2 1.006.389 1.517.561a1.025 1.025 0 01-.239.174c.13.181.436.049.754-.009.173.054.345.108.518.158a1.2 1.2 0 00-.01.247c.1-.042.209-.113.311-.155l.245.068a.257.257 0 01.049.108l.02-.089q.423.115.849.218a.877.877 0 01.233.235l.165-.139c.71.161 1.428.29 2.148.395l.025.028v-.025a26.234 26.234 0 003.164.272c6.136-.333 11.44-3.766 16.529-6.85.766-.5 2.764-1.83 3.6-2.394l.011.427a.72.72 0 01-.106.155l.113.072c.194 8.264.259 16.532 0 24.795l-.648.02c-2.273.078-5.082.333-7.34.464l-1.467.074c-.479-.026-1.117.23-1.5-.223a1.229 1.229 0 10.035 1.738.7.7 0 01.312-.188v.179l.111-.141v-.057a1.367 1.367 0 01.312-.027l.007.022s.009-.017.014-.021c.134.006.265.019.392.031a1.087 1.087 0 010 .2l.105-.145v-.051h.105l.011.158c.028.105.058-.137.082-.155.007.006.014.036.02.116.012.214-.028.252-.057.3.066-.1.177.406.308.354.1-.026.11-.424.14-.747l.153.009v.042c.04.32.1.14.152-.035l.147.009a1.573 1.573 0 00-.012.516c-.051-.019-.053-.135-.124-.17.111.547.25.068.32-.066-.02-.049-.026-.2-.064-.161l.052-.11.132.006c.028.137.115.084.134.292-.04.273-.115-.125-.109.234.156.148.416-.217.668-.487l.209.012-.012.124a.385.385 0 01.126-.118l.184.01a.7.7 0 01.238.47c-.027-.323.2.12.212-.438h.047a.673.673 0 00.066.08v-.075l.084.006c.02.105.04.213.09.2a1.5 1.5 0 01-.021-.2l.225.016c.053.177.111.372.161.533a2.876 2.876 0 00-.049-.408c.037.077.049-.007.056-.114h.064c.007.15.006.339 0 .466.083.115.132-.314.187-.453h.059l.007.015v-.015l.325.024c0 .332-.12.316-.167.507a1.433 1.433 0 01.1.333c.052-.247.136-.577.2-.83h.014c-.045.551.1.552.147.6-.007-.267-.041-.4-.109-.354a.664.664 0 01.037-.24l.2.014v.464c.1-.277.151-.1.209-.433.054.345-.036.105.019.452l.078-.313c.058.089-.059.341.031.423.01-.2.083-.413.153-.363l-.021.118c.045-.11.105-.009.109-.308h.021l.038.355-.01-.353h.026c.127.241.188 1.063.366.61a.824.824 0 01.021-.422c-.079-.288-.1.3-.173.348a3.909 3.909 0 01.033-.52l.2.014c.007.09.015.2.021.346.12.08.166-.429.288-.174v.153c.022-.65.092.192.174-.293l.271.017.006.068.007-.067.141.009c0 .111.014.219.026.341-.1.136-.116-.186-.193.341.166.694.14-.546.329.068l.033-.737h.045a.949.949 0 00.025.3 1.107 1.107 0 00.019-.294c.074 0 .15.01.223.015a.193.193 0 00.048.085.687.687 0 01-.014-.084c.068 0 .134.007.2.011v.014-.014h.11l-.011.052.035-.051c.324.019.64.027.96.041.046.353.093.772.183.549a1.077 1.077 0 00.027-.508h.071c.026.443.068-.21.131.239 0-.054-.012-.14-.014-.234.183.006.371.019.552.024.012.051.019.088.036.151v-.15c.058 0 .12.006.179.007a1.682 1.682 0 00.51-.025l-.015.291a2.14 2.14 0 01.132-.369.543.543 0 00.106-.093c.118-.11.235-.218.353-.14l.027.13c.025-.012.017-.045.027-.067.1.15.209.335.314.281 0 .057 0 .127-.007.219l.04-.22c.181-.011.363-.021.543-.035.009.1.016.2.017.255a2.066 2.066 0 00.08-.261h.073c.11-.017.221-.026.332-.043v.168l.041-.173h.041a.935.935 0 01.025.325c.153-.848.214.278.372-.115l-.088-.1c0-.066 0-.106.006-.15l.113-.015a1.02 1.02 0 00.121.358c.024-.1.043-.241.063-.382l.238-.032a.632.632 0 01.078.354.832.832 0 01.062-.372l.252-.033v.035a1.169 1.169 0 01-.037.111l.049.015a1.1 1.1 0 01-.009.135c.045 0 .046-.433.1-.146a.375.375 0 01-.058.23c.064.036.12-.23.173-.41l.134-.017v.011-.012c.129-.015.257-.037.387-.051a7.2 7.2 0 01-.036.224c.041.109.1-.087.158-.24l.141-.012.015.212c.017-.063.035-.146.052-.217h.077a.361.361 0 01.011.048v-.049c.077-.007.153-.009.23-.016a.5.5 0 01.048.12l.022-.125a35.548 35.548 0 017.155.043.869.869 0 100-1.7c-.085.011-.172.014-.257.024-.058-.3.038-.651.118-.653a1.666 1.666 0 01-.04.506c.038.047.069.183.108.092a2.149 2.149 0 01.072-.953c-.194-.247-.349.808-.544.757a2.549 2.549 0 00.024-.322c-.224.1-.5.249-.59-.011-.075-.1-.09.412-.186.532l-.042-.339c-.052.217-.208-.144-.152.407 0 .049.045-.262.088-.166l-.007.192.1-.069-.017.127-.271.019a1.727 1.727 0 00.056-.485c-.038.072-.088-.073-.094.119.006.047 0 .166.031.12l-.038.247h-.153c.077-.064.151 0 .1-.444-.411.23-.977-.108-1.454.455l.077-.249c-.229.455-.325-.354-.495.275h-.033l.017-.323c-.071-.084-.137.213-.207.323h-.085a.536.536 0 01-.042-.127l.007.127h-.056c0-.006-.01-.02-.016-.02v.02h-.141c-.015-.061-.035-.04-.056 0h-.126c.007-.047.021-.084.025-.118-.148.168-.234-.1-.328.114h-.317a.444.444 0 00-.056-.182.39.39 0 00-.088.179l-.808-.012c-1.5.014-2.982-.349-4.475-.485a1.332 1.332 0 01-.318-.8c.087.075.219.054.322.087-.094-.817-.247-1.823.012-2.148.1-.275-.412-.325-.532-.672l.339-.156c-.217-.187.145-.757-.407-.554-.049.021.262.162.166.322l-.192-.026.069.369-.131-.064-.017-.987a.625.625 0 00.489.207c-.073-.139.073-.32-.12-.345-.047.024-.166.021-.12.114l-.25-.141v-.563c.069.282 0 .556.448.384-.233-1.492.106-3.552-.457-5.282l.249.277c-.454-.827.348-1.178-.267-1.792v-.127l.316.063c.083-.252-.2-.491-.314-.737v-.337a.484.484 0 01.119-.142l-.119.025v-.25c0-.011.011-.017.011-.031h-.011v-.542a.151.151 0 000-.148v-.473a.771.771 0 00.106.082c-.166-.531.092-.839-.1-1.175v-1.172a.375.375 0 00.171-.2.69.69 0 00-.168-.3c0-.984.01-1.967.011-2.951-.007-2.275.061-4.557.142-6.84l.006-.011v-.012c.144-3.938.345-7.882.387-11.81a2.818 2.818 0 00-.335-1.334 2.866 2.866 0 01.132-1.334c.422-1.351.1-3.851.165-5.335 0 0-.009-.761-.012-1.148a.962.962 0 00.161.178c.021.017.045.033.066.052l-.01.006h.02c.64.538 1.3 1.052 1.975 1.547a1.538 1.538 0 01-.1.259 1.93 1.93 0 00.463 0c.444.317.888.636 1.345.933a1.61 1.61 0 00-.113.13l.249-.048c.043.028.088.053.131.08-.03.115.077.224-.1.346 1-.363.6.716 1.368.741l-.255-.285a.528.528 0 01.108-.12c.134.079.262.165.4.241-.006.243.1.306.246.565a1.991 1.991 0 00.436-.2q.412.223.83.433a.462.462 0 01.14.5.423.423 0 01.419-.213l.048.026c.292.148.589.282.886.419 0 .009 0 .015-.006.024a.921.921 0 01-.191.031l.182.105c-.048.056-.064.105-.093.105.168.088.356-.307.452.061-.069.142-.191.089-.316.1.219.153.527.021.8-.058.677.286 1.365.538 2.06.763a1.828 1.828 0 01-.2.15c.122.152.382.064.662 0 .2.061.4.109.606.165a.861.861 0 000 .218c.089-.04.187-.1.28-.144.094.025.187.052.281.075.014.028.033.038.041.083l.016-.068c.294.073.59.137.887.2a.87.87 0 01.2.205l.155-.132c.71.14 1.424.257 2.143.335l.038.046v-.042a24.433 24.433 0 0014.6-2.924 44.466 44.466 0 009.49-6.834 1.342 1.342 0 00.51-.911 1.343 1.343 0 00-.49-.683c-.309-.188-.612-.386-.917-.583m-2.44 3.069a.342.342 0 01-.155-.163c.17-.522.161-.174.3.03-.049.043-.1.09-.148.134m-2.378 1.359c-.075.151-.324.141-.231.313.048.024.115.121.171.027l.021.286c-.173.131-.346.259-.521.386.214-.252.536-.359.105-.63-1.172 1.145-3.213 2.017-4.633 3.322l.156-.356c-.614.836-1.3.219-1.659 1.114l-.1.038-.068-.359c-.313.024-.442.487-.7.664-.059.024-.119.042-.178.064a.465.465 0 01-.264-.062l.082.126-.147.052a.29.29 0 00-.134 0l.036.032q-.355.122-.709.234a.635.635 0 00.166-.072c-.084-.046-.157.012-.234.092-.147.046-.294.092-.442.134.015-.052.053-.105.057-.14-.507.335-.895.147-1.2.437-.408.094-.818.179-1.229.25a.386.386 0 00-.226-.118.726.726 0 00-.271.192c-6.208.913-12.618-.951-18.94-6.173a35.626 35.626 0 01-2.2-1.851c-.339-.338-.977-.346-1.325-.685-.017-.016-.03-.04-.047-.056.1-.071.207-.136.306-.21a91.433 91.433 0 018.525-5.452c3.217-1.733 6.793-3.7 10.424-3.906 3.7.046 7.388 1.646 10.679 3.361a54.022 54.022 0 018.317 5.319 2.239 2.239 0 01-.509 1.247c0-.119-.1-.2-.148-.3-.574.657-1.312 1.466-1.748 1.48-.285.111-.01.542-.234.864l-.341-.166c-.027.294-.732.379-.229.688.047.025-.019-.317.176-.344l.094.17.275-.3.024.134c-.28.226-.559.449-.84.664a.6.6 0 00-.11-.516m-1.628 1.759c-.088.058-.174.121-.262.179.02-.21.047-.442.271-.5a.681.681 0 01-.009.323m.557-.381l-.292.2.064-.15c.062.037.145 0 .228-.051m-38.362 20.6a.333.333 0 01-.181-.194c.243-.527.177-.122.319.09-.047.033-.092.071-.139.1m-1.57.9l-.329-.188c-.049.3-.775.329-.286.673.046.028.006-.317.205-.332l.082.177.3-.282.012.145c-.3.2-.6.411-.9.609a.6.6 0 00-.074-.532c-.089.144-.334.129-.254.3.047.027.109.129.17.035v.29c-.153.1-.311.193-.464.291.213-.191.429-.3.061-.552-1.26 1.074-3.352 1.938-4.761 3.3l.151-.364c-.59.835-1.294.268-1.625 1.121l-.124.062-.075-.314c-.278.052-.4.419-.6.63l-.314.145a.606.606 0 01-.208-.049l.08.108-.183.083a.2.2 0 00-.084.01l.024.019c-.178.078-.359.15-.539.224a.189.189 0 00-.173.071c-.158.064-.317.131-.476.193.009-.056.048-.114.048-.151-.484.35-.872.241-1.156.543-.4.132-.8.25-1.208.356a.383.383 0 00-.246-.1.829.829 0 00-.261.235 14.386 14.386 0 01-3.005.391 22.262 22.262 0 01-10.815-3.26 43.577 43.577 0 01-6.912-5.074 2.844 2.844 0 00-1.261-.741 1.525 1.525 0 01-.271-.172c1.3-.963 2.41-2.209 3.761-3.135 4.517-3.436 9.89-6.079 15.637-6.253 7.013.037 14.1 3.544 19.081 8.508a2.152 2.152 0 01-.658 1.115c.017-.118-.079-.213-.11-.317-.667.6-1.49 1.349-1.933 1.328-.3.087-.064.539-.313.853m-2.715 1.929c-.092.056-.179.115-.271.17.027-.194.073-.393.281-.445a.6.6 0 01-.01.276m.434-.272l-.15.094.046-.1a.141.141 0 00.1.006m5.714-3.971c-.375.3-.761.582-1.143.867.329-.49.781-.949 1.143-.867m-.22-.458c.118.119.233.24.348.361-.04.031-.08.059-.119.09a.338.338 0 01-.229-.452m-1.61-55.097a.342.342 0 01-.15-.178c.215-.516.176-.157.308.056l-.158.122m-1.5.958l-.335-.181c-.045.293-.763.348-.27.677.047.027 0-.317.2-.335l.087.173.288-.284.015.14q-.442.325-.886.638a.6.6 0 00-.085-.537c-.085.146-.33.137-.245.312.047.025.111.125.17.03l.012.3c-.188.132-.376.262-.564.392.225-.266.594-.36.156-.653-1.237 1.1-3.32 1.969-4.732 3.328l.159-.355c-.616.814-1.309.247-1.651 1.142l-.1.046-.075-.342c-.309.035-.433.469-.673.661l-.218.089a.5.5 0 01-.24-.048l.08.113-.2.08a.249.249 0 00-.072.007l.016.012c-.187.072-.375.139-.563.205a.179.179 0 00-.142.051 19.22 19.22 0 01-.479.161.538.538 0 00.041-.114c-.433.322-.786.249-1.067.424-.468.13-.938.247-1.412.346a.344.344 0 00-.156-.053.614.614 0 00-.181.12 19.877 19.877 0 01-14.153-2.6 32.292 32.292 0 01-6.82-5.136 3.37 3.37 0 00-1.239-.778 1.66 1.66 0 01-.294-.3c5.523-4.714 11.904-9.25 19.47-9.396 7.013.037 14.1 3.545 19.081 8.509-.16.44-.262.96-.637 1.22.012-.119-.087-.209-.122-.312-.64.619-1.438 1.394-1.881 1.386-.3.1-.047.542-.286.862m-2.684 2.038c-.089.058-.179.114-.27.171.026-.209.058-.44.285-.5a.728.728 0 01-.015.334m.742-.491c-.161.108-.322.215-.483.32l.075-.171c.1.059.273-.08.407-.15m5.283-3.977q-.535.44-1.074.87c.308-.485.72-.93 1.074-.87m-.22-.523c.129.13.254.262.379.393-.049.042-.1.082-.148.122-.256-.056-.3-.3-.23-.516m39.276 35.93l.226.285c-.157.132-.313.271-.47.4-.031-.243-.125-.539.244-.684m2.588-1.881q-.484.479-.975.934c.264-.5.626-.958.975-.934m-.265-.495c.136.119.265.245.4.367-.041.04-.082.077-.121.118-.252-.036-.318-.266-.277-.485m-2.72-3.563zm-.338-.238l-.124-.085a.418.418 0 01.132.073l-.009.012m-.375-.479a1.119 1.119 0 00-.16.108l-.214-.148c.124.014.25.024.374.041m-4.341-2.616a.4.4 0 00-.045.1h-.007l-.061-.033a.165.165 0 01.113-.064m-13.56-3.761a1.228 1.228 0 00-.085.148c-.11.019-.22.036-.33.057.054-.166.162-.271.416-.205M49.561 18.999a.493.493 0 01.035-.13l.311.176a1.155 1.155 0 01-.345-.046m5.938 2.567a.416.416 0 010-.077c.074.025.148.052.223.075a1.437 1.437 0 01-.22 0m21.789-4.683l-.262.173c.02-.207.052-.429.271-.49a.671.671 0 01-.009.317m.265-.174l.064-.148c.093.053.231-.051.351-.127-.137.1-.278.183-.416.276m1.482-1.07a.593.593 0 00-.111-.511c-.077.15-.324.141-.233.313.048.025.116.122.171.027l.021.283c-.173.131-.345.261-.521.389.214-.252.535-.359.105-.629-1.181 1.146-3.23 2.027-4.66 3.327l.157-.356c-.6.823-1.276.239-1.646 1.059l-.125.052-.059-.318c-.276.02-.408.385-.609.594-.122.047-.249.083-.372.126a.51.51 0 01-.162-.054l.058.09c-.287.1-.574.2-.862.288a.211.211 0 00-.063.021c-.166.052-.332.1-.5.152a.332.332 0 00.035-.089c-.469.3-.831.171-1.127.369-.452.106-.9.2-1.36.275a.351.351 0 00-.175-.083.65.65 0 00-.234.157 20.308 20.308 0 01-14.146-2.906 43.209 43.209 0 01-6.962-5.092c-.3-.381-.892-.439-1.312-.7a2.2 2.2 0 01-.176-.181C53.915 5.206 62.324-.844 74.554 5.61a33.45 33.45 0 018.046 5.66c-.165.481-.176 1.138-.579 1.472 0-.118-.1-.2-.148-.3-.577.658-1.318 1.471-1.755 1.485-.287.113-.012.543-.239.866l-.34-.166c-.028.294-.735.381-.231.689.047.025-.017-.318.177-.345l.094.17.276-.3.025.147c-.151.118-.3.239-.45.354-.129.1-.264.194-.393.294m3.775-4.139c.139.151.266.311.4.466l-.184.2c-.33-.042-.348-.417-.214-.663m-1.46 2.275a.338.338 0 01-.193-.174c.179-.552.158-.134.325.061-.043.038-.089.075-.132.114m-.939.286l.245.308c-.161.132-.325.262-.489.393-.027-.246-.134-.553.244-.7m1.571-.862c.268-.532.662-1.057 1.033-1.026q-.5.529-1.033 1.026m1.57-.83c.019.025.04.046.058.069s-.02-.009-.058-.069m-3.18-4.644l-.02-.015h.015zm-.32-.292a.193.193 0 01-.021.031l-.208-.158a.457.457 0 01.229.127m-.37-.484a1.267 1.267 0 00-.181.111c-.083-.061-.17-.119-.254-.181zm-4.351-2.724a.447.447 0 00-.051.118l-.074-.04a.182.182 0 01.125-.078M61.612.913a1.3 1.3 0 00-.139.218c-.1.012-.208.028-.312.042a.315.315 0 01.45-.26M38.733 7.706zm-.317-.277c0 .01-.009.011-.012.02l-.186-.141a.46.46 0 01.2.121m-.371-.484a1.01 1.01 0 00-.168.1c-.073-.054-.145-.111-.218-.166zm-4.4-2.621c-.024-.011-.046-.026-.069-.037a.166.166 0 01.113-.067.366.366 0 00-.043.1M19.98.885a1.2 1.2 0 00-.139.188c-.106.006-.214.016-.322.025.064-.205.183-.328.46-.213M7.616 19.172a.482.482 0 01.016-.135c.106.061.208.129.316.187a1.15 1.15 0 01-.332-.048m6 2.508a.621.621 0 010-.079c.09.027.183.043.273.069a1.33 1.33 0 01-.27.01m24.7-7.237c-.017-.247-.1-.554.288-.679l.214.3-.5.376m3.539 3.653a.835.835 0 00.158.059v.221zm-.012 4.524a.511.511 0 00.1-.007v.064a.159.159 0 01-.1-.057m-.235 12.365a1.254 1.254 0 00.11.084v.29a.231.231 0 01-.105-.374M41.5 63.26a.556.556 0 01.148-.038c0 .114.006.228.01.341a1 1 0 01-.158-.3m-2.749 1.558zm-.317-.277c0 .009-.009.01-.012.019-.062-.048-.125-.093-.186-.141a.452.452 0 01.2.122m-.369-.484a1.024 1.024 0 00-.17.1l-.218-.165zm-4.398-2.623l-.069-.038a.176.176 0 01.114-.068.427.427 0 00-.045.106m-13.622-3.453a1.153 1.153 0 00-.136.184c-.109.007-.217.017-.325.026.066-.205.183-.328.462-.21M7.71 75.96a.546.546 0 01.031-.113l.3.168a.992.992 0 01-.328-.056m5.9 2.622a.38.38 0 010-.074c.078.026.158.048.236.073a1.342 1.342 0 01-.235 0m24.615-7.2c-.009-.25-.088-.564.308-.678l.213.32c-.172.121-.346.239-.521.358m-5.61 26.831c.009-.057.011-.109.016-.16h.062zm1.245.011v-.1h.017a.384.384 0 01-.015.1m3.4.235a1.073 1.073 0 00.017-.111h.085c-.021.145-.049.219-.1.106m7.779.109c-.006-.033 0-.082-.009-.121l.084-.011a.427.427 0 01-.075.132m1.553-.281v-.047h.032a.345.345 0 01-.027.052m7.57-1.737c-.114.014-.229.021-.343.032.134-.193.281-.283.343-.032m-.537.049h-.049a1.336 1.336 0 010-.234c.121-.286.059-.02.053.229m-.273-.345v.371c-.053 0-.105.011-.157.015.032-.212.059-.511.158-.386m-.912.426h-.064l.028-.075a.087.087 0 00.036.073m-.105-.24a1.346 1.346 0 01-.042.245h-.079c.032-.157.068-.313.121-.247m-8.832-.29c-.011-.327-.017-.652-.026-.979a1.924 1.924 0 01.17.991c-.048 0-.1-.01-.144-.012m-.045-1.68v-.181a.382.382 0 01.235-.015c.285.44.019.214-.23.2m.348-1h-.374c0-.192-.012-.384-.016-.574.213.119.515.219.39.577m-.427-3.316v-.233l.077.1a.16.16 0 00-.074.129m.241-.379a.653.653 0 01-.246-.151v-.29c.157.114.314.246.249.44m6.069-37.294a.435.435 0 01.016-.137c.11.063.226.116.338.177a1.223 1.223 0 01-.354-.04M55.645 55a.259.259 0 010-.031c.03.01.059.021.089.03h-.088"/><path d="M41.775 19.02l-.2.057.272-.041zm-1.016 13.04a.363.363 0 00.171-.022 1.686 1.686 0 00-.205-.137.151.151 0 01.035.16m.4 1.305l-.063.01c.036.047.051.032.063-.01m-.282-3.101a3.129 3.129 0 00.416-.364.48.48 0 00-.416.364m.24-3.017c-.024.184.089.247.276.1-.059-.09-.166-.038-.276-.1m-.311 5.313l.109.364.1.134zm.363 2.827l.223.142a.353.353 0 00-.223-.142m.401 30.511l.006-.115a.082.082 0 00-.006.115m2.64 29.715a.173.173 0 00-.125-.122l.03.282zM37.192 63.44l.053-.047.062-.2zm-13.668-6.311a.3.3 0 00.014.172 1.617 1.617 0 00.182-.2.213.213 0 01-.2.025m-1.583.321l-.012-.063c-.056.032-.038.048.012.063m3.72.064a3.339 3.339 0 00.354.476c-.015-.176-.03-.312-.354-.476m3.418 1.083c-.2-.092-.3-.007-.2.225.116-.024.092-.145.2-.225m-6.606-1.363l-.163.092.606-.178zm-3.085.599a.387.387 0 00.141-.246zm20.838 11.207a.181.181 0 00-.037.178l.235-.2zm38.316-29.061l-.106.254.052-.048zm-13.499-6.524a.273.273 0 00.01.172 2.012 2.012 0 00.2-.191.244.244 0 01-.208.019m-1.675.306l-.014-.062c-.061.04-.04.053.014.062m3.841.191a4.017 4.017 0 00.314.521c0-.178-.006-.318-.314-.521m3.104 1.545c.119-.019.1-.139.21-.215-.194-.1-.3-.017-.21.215m-5.917-2.041l-.466.078-.172.089zm-3.666.897a.364.364 0 00.12-.252zm21.161 11.313a.183.183 0 00-.011.181l.2-.226zM78.931 6.082l-.115.251.054-.046zM65.132.026a.3.3 0 00.015.174 1.846 1.846 0 00.182-.2.215.215 0 01-.2.025m-1.586.318L63.531.28c-.056.032-.037.049.012.063m3.724.062a3.452 3.452 0 00.355.472c-.015-.176-.03-.312-.355-.476m3.423 1.086c-.2-.092-.3-.007-.2.225.116-.024.092-.145.2-.225M64.076.128l-.163.092.606-.178zm-3.138.69a.374.374 0 00.132-.25zm20.946 11.445a.184.184 0 00-.012.181c.069-.077.139-.155.2-.226zM37.289 6.075l-.115.251.054-.046zM23.463.025a.3.3 0 00.015.175 1.723 1.723 0 00.182-.2.215.215 0 01-.2.025m-1.588.317L21.86.28c-.056.037-.037.052.012.062m3.731.059a3.469 3.469 0 00.356.476c-.015-.176-.03-.311-.356-.476m3.43 1.075c-.2-.092-.3-.007-.2.225.116-.024.092-.145.2-.225M22.406.126l-.163.091.608-.178zm-3.09.612a.381.381 0 00.14-.244zm20.907 11.31a.182.182 0 00-.028.179 26 26 0 00.224-.212zm-7.35 86.24l.015.2-.011-.272zm3.587 1.02a1.173 1.173 0 00-.006-.171l-.037.205c.012-.03.025-.064.043-.035m-.594-.532a.764.764 0 00.1.416 5.302 5.302 0 00-.1-.416m-.727.177c.051.022.068-.089.027-.276a2.261 2.261 0 00-.027.276m1.559.197l.037-.1-.137.21zm.719-.474a.667.667 0 00-.04.223zm8.356-.186l-.032-.007c.01.041.021.031.032.007m8.167-2.634a.236.236 0 00-.033.124l.078-.028z"/></g></svg>