<svg xmlns="http://www.w3.org/2000/svg" width="65.107" height="98.711"><defs><clipPath id="a"><path fill="none" d="M0 0h65.107v98.711H0z"/></clipPath></defs><path d="M31.572 34.264l.273-.032-.069-.014z"/><g clip-path="url(#a)"><path d="M30.755 44.623a.448.448 0 00.171-.017 1.667 1.667 0 00-.205-.11c.03.037.064.072.035.127m.4 1.043l-.062.007c.035.038.049.026.062-.007m-.283-2.474a3.01 3.01 0 00.416-.291.47.47 0 00-.416.291m.516-2.326c-.059-.072-.166-.031-.276-.08-.022.147.089.2.276.08m-.381 4.554l-.209-.4.109.29zm.38 1.975a.371.371 0 00-.223-.113zm.182 24.224l.006-.092c-.04.028-.03.061-.006.092m2.637 23.696a.161.161 0 00-.125-.1l.03.225zM51.837 81.4l-.2.011.267-.008zm-1.022 2.55h.171l-.207-.026c.031.009.066.017.036.031m.531-.428a1.02 1.02 0 00-.418.072l.418-.072m.101-.499c-.059-.017-.167-.007-.277-.02-.022.036.09.048.277.02m-.373 1.117l-.21-.1.11.072zm.377.482a1.053 1.053 0 00-.223-.027zm.181 5.94l.006-.022c-.041.007-.031.015-.006.022M36.596 49.179l-.116-.125.119.17c-.015-.028-.031-.058 0-.045m-.049-.306l.075.215-.026-.125zm6.065-9.682a.362.362 0 00.067.108.312.312 0 01.019-.054zM26.488 69.674l-.224.155.064-.026zm-5.959-4.711a.531.531 0 000 .171c.041-.075.078-.142.106-.2-.032.026-.063.057-.1.026m1.092.304a4.182 4.182 0 00.118.459.475.475 0 00-.118-.459m1.502 1.065c.073-.031.092-.14.174-.223-.093-.071-.173.016-.174.223m-3.152-1.237l-.085.1.317-.194zm-1.541.573a.439.439 0 00.049-.233zm6.301 8.549a.232.232 0 00.129.064.794.794 0 01-.021-.111zm37.299-1.926l.153-.139-.22.162zm-8.178-6.382a.409.409 0 000 .171c.057-.077.106-.141.137-.193-.042.024-.083.054-.14.022m-1.119.346c0-.021 0-.04-.009-.062-.04.036-.026.052.009.062m2.62.021a3.778 3.778 0 00.2.479.461.461 0 00-.2-.479m2.316 1.073c-.13-.088-.223-.007-.194.213.092-.022.1-.136.194-.213m-4.676-1.226l.429-.189-.314.094zm-2.018.515a.375.375 0 00.082-.238zm9.839 11.977a.184.184 0 00.124.092c0-.059-.007-.12-.011-.174zM24.132 36.136c-.083-.106-.442.063-.742.188-.026-.053-.049-.108-.077-.16.009 0 .025-.011.031-.016.249-.208.061-.173-.119-.132-.03-.049-.057-.1-.088-.146a1.313 1.313 0 00.426-.285c.024.064-.067.129-.051.224.377-.426-.136-.3-.286-.283-.024.051-.14.148-.08.161l-.114.017c-.031-.043-.067-.082-.1-.124.08-.113-.028-.155.11-.311.239-.145 0 .189.269-.051-.031-.264-.527-.25-.934-.235-.059-.052-.122-.1-.186-.151l.087-.1a.5.5 0 01-.214 0c-.051-.037-.1-.078-.15-.113a.753.753 0 01-.026-.564c-.115.307-.181-.229-.438.294-.014-.007-.027-.017-.042-.025a.42.42 0 00-.04-.125l-.045.089c-.028-.014-.057-.024-.084-.036.016-.114.04-.24-.028-.255a1.259 1.259 0 01-.051.221c-.08-.035-.158-.073-.241-.1-.012-.2-.032-.4-.054-.593a2.686 2.686 0 00-.043.411c-.027-.093-.067.006-.1.12l-.069-.021c.024-.152.073-.353.106-.485-.094-.153-.255.328-.344.415l-.042-.012a.086.086 0 01-.016-.041v.038a4.219 4.219 0 00-.389-.069c.015-.359.178-.329.266-.51-.022-.118-.1-.167-.1-.348-.1.246-.24.58-.332.831h-.019c.09-.572-.115-.578-.178-.626.012.266.052.4.141.359a.533.533 0 01-.063.261 4.553 4.553 0 00-.233-.015c-.012-.121-.012-.307-.015-.483-.116.282-.2.105-.243.447-.1-.34.038-.108-.064-.448l-.069.322c-.085-.077.041-.35-.089-.413.009.2-.056.424-.151.389l.007-.12c-.04.115-.125.049-.08.325h-.03l-.118-.341.084.346h-.027c-.2-.194-.506-.977-.626-.47a.652.652 0 01.1.412c.181.241.03-.324.122-.4a4.2 4.2 0 01.1.509 4.333 4.333 0 00-.251.057 7.155 7.155 0 01-.134-.309c-.183-.016-.051.47-.29.3l-.058-.144c.241.6-.182-.1-.082.345-.108.045-.214.09-.319.145l-.026-.035.017.038c-.054.028-.106.062-.16.093a4.6 4.6 0 00-.2-.254c.043-.187.225.079.049-.431-.573-.459.12.557-.438.2l.386.61-.051.032a.712.712 0 00-.194-.2.961.961 0 00.146.234c-.077.054-.15.116-.224.176a.162.162 0 00-.094-.02c.028.016.045.028.067.043-.067.056-.135.108-.2.167h-.006v.007c-.016.015-.035.027-.052.043s-.032.037-.049.053c-.007-.014-.02-.032-.025-.042l.006.062a4.572 4.572 0 00-.767.966c-.335-.12-.726-.265-.591-.033a.808.808 0 00.468.269c-.014.026-.026.054-.038.08-.419-.155.152.163-.293.059a2.139 2.139 0 01.228.077 4.611 4.611 0 00-.245.669c-.054 0-.1 0-.165.007.038.009.1.02.153.03-.021.075-.051.147-.068.224a1.837 1.837 0 00-.056.657l-.288-.038a2.583 2.583 0 01.36.191.528.528 0 00.087.135c.116.148.231.277.16.426l-.126.045a.116.116 0 00.053.046c-.129.139-.272.293-.2.413a3.017 3.017 0 01-.215.033h.224a4.862 4.862 0 00.252.664c-.105.051-.2.1-.257.121a1.378 1.378 0 00.307.007 4.337 4.337 0 00.259.438c-.058.028-.108.049-.178.087l.205-.042.022.036c-.1.067-.1.122-.29.2.835-.26-.094.393.363.361l.02-.152c.057-.038.1-.058.135-.08.03.038.066.068.1.105-.152.152-.127.184-.2.344a3 3 0 00.361-.173c.069.073.131.155.2.221a.578.578 0 01-.192.3.694.694 0 01.32-.2c.082.068.168.125.252.187-.009.011-.012.017-.024.03a.744.744 0 01-.111.051l.038.053a1.031 1.031 0 01-.1.093c.042.043.329-.287.2-.021a.3.3 0 01-.207.124c.045.09.262-.068.426-.168.048.031.1.059.145.088v.006a4.651 4.651 0 00.424.209 3.5 3.5 0 01-.156.173c-.007.125.148-.01.291-.106.052.021.1.04.157.059-.028.069-.057.141-.083.2.052-.049.113-.124.163-.179.026.01.053.016.079.024a.321.321 0 01-.014.073l.026-.051c.082.027.163.052.246.074a.579.579 0 01.016.171l.083-.141a5.081 5.081 0 00.611.1v.033-.033a4.642 4.642 0 005.344-4.235 1.57 1.57 0 01-.1-.207c0-.007 0-.017-.011-.022-.02-.043-.046-.087-.063-.13l.217-.014-.2-.113-.057.01a3.39 3.39 0 01-.09-.35l.004-.006-.015-.007c-.03-.148-.058-.3-.093-.444a1.363 1.363 0 01.194-.063l-.179-.071c-.014 0-.036.015-.051.017q-.017-.058-.037-.115l.146-.068c.085-.073-.155-.014-.177-.033 0-.011.027-.03.1-.066.193-.1.245-.066.3-.049-.113-.036.285-.366.158-.51m-2.09 3.884c-.119-.109-.238-.22-.163-.215a1.606 1.606 0 01.191.157c-.01.02-.017.041-.027.058m0-.172a.1.1 0 00.068.011c-.007.015-.012.031-.02.045zm.193-.271a2.225 2.225 0 00-.411-.224c.054.052-.092.021.079.106.046.016.153.067.119.031l.2.121c-.012.032-.028.061-.042.093-.011-.066.019-.093-.355-.243.069.379-.4.464-.273 1.1l-.125-.221c.166.473-.39-.141-.115.462l-.017.011-.179-.281c-.082-.043.042.254.047.364l-.045.028a.546.546 0 01-.1-.1l.074.115c-.011.006-.021.015-.032.021s-.024-.02-.031-.016l.017.024a1.203 1.203 0 01-.113.058.014.014 0 00.007-.014c-.041-.056-.043-.022-.04.027-.03.014-.061.024-.089.036-.015-.046-.02-.085-.032-.116-.043.209-.193-.03-.193.207-.079.025-.158.041-.239.058a.616.616 0 00-.085-.165.554.554 0 00-.024.188 2.463 2.463 0 01-2.973-2.4c.075-.092-.2-.124-.371-.2-.1-.082.011-.184.12-.268.318-.162.193-.309.243-.469a2.686 2.686 0 014.389-1.57 2.924 2.924 0 01.692.908c.136.339.4.746.038 1.131a2.927 2.927 0 010 .466c-.22-.142-.337-.257 0-.277-.337.022-.715-.072-.682-.111a2.459 2.459 0 01.513.047c.059-.024.207-.043.122-.073a3.691 3.691 0 01-.932-.052c-.395.067.721.212.662.36-.089-.026-.229-.042-.337-.063.116.14.271.375 0 .35-.1.014.375.176.465.283l-.328-.089c.189.11-.179.072.342.251.047.014-.231-.132-.132-.125l.177.077-.038-.1.09.045c-.017.068-.03.139-.052.2m-.241-.488l.333.1c-.007.04-.016.077-.025.115-.189-.089-.436-.193-.308-.214m.131-.12c-.287-.15-.012-.042.243.015 0 .012 0 .024-.006.036a1.929 1.929 0 01-.236-.051m.648-3.733c-.031.028-.047.046-.068.068l-.014-.012a.3.3 0 01.082-.056m-3.739-1.52a1.222 1.222 0 00-.007.127l-.105.006c0-.153.028-.238.113-.134m-3.323 7.5a1.179 1.179 0 01.1-.087l.075.08a.387.387 0 01-.174.006m1.613 1.083c.009-.02.014-.028.021-.047l.036.019c-.02.007-.036.025-.057.028m6.132-5.793l-.025-.059c.059 0 .119 0 .179.006-.057.016-.105.035-.155.053"/><path d="M23.544 36.151l.167-.118-.23.147zm-3.412-3.29a.951.951 0 00-.007.171l.075-.2c-.022.027-.042.059-.068.028m.696.234q.019.212.037.438a.565.565 0 00-.037-.438m.88.848c.054-.04.084-.144.153-.233-.054-.052-.122.041-.153.233m-1.933-.943l-.054.1.2-.2zm-.954.536a.608.608 0 00.017-.228zm2.763 5.111a.46.46 0 00.13.036l-.027-.047zm7.085-23.394c-.083-.106-.442.063-.742.188-.026-.053-.049-.108-.077-.16.009 0 .025-.011.031-.016.249-.208.061-.173-.12-.132-.028-.049-.056-.1-.087-.146a1.326 1.326 0 00.426-.285c.024.064-.067.129-.051.224.377-.426-.136-.3-.286-.283-.024.051-.14.148-.08.161l-.114.017c-.031-.043-.067-.082-.1-.124.08-.113-.028-.155.11-.311.238-.145 0 .189.268-.051-.031-.264-.527-.25-.934-.235-.061-.052-.122-.1-.186-.151l.087-.1a.5.5 0 01-.214 0c-.051-.037-.1-.078-.15-.113a.753.753 0 01-.026-.564c-.115.307-.181-.229-.438.294-.014-.007-.027-.017-.042-.025a.42.42 0 00-.04-.125l-.045.089c-.028-.014-.057-.024-.085-.037.017-.113.041-.239-.027-.254a1.259 1.259 0 01-.051.221c-.08-.035-.158-.073-.241-.1-.012-.2-.032-.4-.054-.593a2.538 2.538 0 00-.043.411c-.027-.093-.067.006-.1.12l-.069-.021c.024-.153.073-.353.106-.485-.094-.153-.255.328-.344.415-.015 0-.028-.009-.042-.011a.1.1 0 01-.016-.042v.038c-.129-.03-.259-.049-.389-.069.015-.359.178-.329.266-.51-.022-.118-.1-.167-.1-.348-.1.246-.24.58-.332.831h-.014c.09-.572-.116-.578-.178-.626.012.266.052.4.141.359a.533.533 0 01-.063.261 4.553 4.553 0 00-.233-.015c-.014-.121-.012-.307-.015-.483-.116.282-.2.105-.243.447-.1-.34.038-.108-.064-.448l-.069.322c-.085-.077.041-.35-.089-.413.009.2-.056.424-.151.389l.007-.12c-.04.115-.125.049-.08.325h-.031l-.116-.342.084.346h-.027c-.2-.194-.506-.977-.626-.47a.652.652 0 01.1.412c.179.241.03-.324.122-.4a4.2 4.2 0 01.1.509 4.333 4.333 0 00-.251.057 6.645 6.645 0 01-.134-.309c-.183-.016-.051.47-.29.3l-.058-.144c.24.6-.182-.1-.082.345-.108.045-.215.09-.319.145l-.026-.035.017.038c-.054.028-.106.062-.16.093a5.009 5.009 0 00-.2-.254c.043-.187.225.079.049-.431-.573-.459.12.557-.438.2l.386.61-.051.032a.712.712 0 00-.194-.2.961.961 0 00.146.234c-.077.054-.15.116-.224.176a.162.162 0 00-.094-.02c.028.016.045.028.067.043-.067.056-.135.108-.2.167h-.006v.007c-.016.015-.035.027-.052.043s-.032.037-.049.053c-.007-.014-.02-.032-.025-.042l.006.062a4.573 4.573 0 00-.767.966c-.335-.12-.726-.265-.591-.033a.808.808 0 00.468.268l-.04.08c-.418-.155.153.163-.292.059a2.137 2.137 0 01.228.077 4.611 4.611 0 00-.245.669c-.054 0-.1 0-.166.007.04.009.1.02.155.03-.021.075-.051.147-.068.224a1.837 1.837 0 00-.056.657l-.288-.038a2.583 2.583 0 01.36.191.557.557 0 00.085.135c.118.148.233.277.161.426l-.126.045a.11.11 0 00.053.046c-.129.139-.272.293-.2.413a3.017 3.017 0 01-.215.033h.224a4.862 4.862 0 00.252.664c-.105.051-.2.1-.257.121a1.378 1.378 0 00.307.007 4.337 4.337 0 00.259.438c-.058.028-.108.049-.178.087l.205-.042.022.036c-.1.067-.1.122-.291.2.836-.26-.093.393.364.361l.02-.152c.057-.038.1-.058.135-.08.03.038.064.068.1.105-.152.152-.127.184-.2.344a2.991 2.991 0 00.36-.173c.071.073.132.155.205.221a.578.578 0 01-.192.3.694.694 0 01.32-.2c.08.068.168.125.252.187a.247.247 0 01-.024.03.744.744 0 01-.111.051l.038.053a1.03 1.03 0 01-.1.093c.042.043.329-.287.2-.021a.3.3 0 01-.207.124c.043.09.262-.068.426-.168.048.031.1.059.145.088v.006a4.64 4.64 0 00.424.208 3.5 3.5 0 01-.156.173c-.009.125.148-.01.29-.106.053.021.105.04.158.059-.028.069-.057.141-.083.2.052-.049.113-.124.163-.179.026.01.053.015.079.024a.329.329 0 01-.014.074l.03-.069c.082.027.163.052.246.074a.546.546 0 01.015.171l.084-.141a5.081 5.081 0 00.611.1v.033-.032a4.643 4.643 0 005.329-4.239 1.57 1.57 0 01-.1-.207c0-.007 0-.017-.011-.022-.02-.043-.047-.087-.063-.13l.217-.014-.2-.113-.057.01a3.39 3.39 0 01-.09-.35l.011-.006-.015-.006c-.03-.15-.058-.3-.093-.445a1.364 1.364 0 01.194-.063l-.179-.071c-.014 0-.036.015-.051.017q-.017-.058-.037-.115l.146-.068c.085-.073-.155-.014-.177-.033 0-.011.027-.03.1-.066.193-.1.245-.066.3-.049-.113-.036.285-.366.158-.51m-2.09 3.884c-.119-.109-.238-.22-.163-.215a1.584 1.584 0 01.191.158c-.01.019-.017.04-.027.057m0-.172a.1.1 0 00.068.011c-.007.015-.012.031-.02.045zm.193-.271a2.225 2.225 0 00-.411-.224c.053.052-.092.021.079.106.045.016.153.067.119.031l.2.121c-.012.032-.028.062-.042.093-.012-.066.019-.093-.355-.243.069.379-.4.464-.273 1.1l-.125-.221c.166.474-.39-.141-.115.462l-.017.011-.181-.264c-.082-.043.042.254.047.364l-.047.028a.593.593 0 01-.1-.1l.074.115a.305.305 0 01-.033.021c-.01-.007-.022-.019-.03-.016l.017.024a1.203 1.203 0 01-.113.058.014.014 0 00.007-.014c-.041-.056-.043-.022-.04.027-.03.014-.061.024-.089.036-.015-.046-.02-.085-.032-.116-.043.209-.193-.03-.193.207-.079.025-.158.041-.239.058a.586.586 0 00-.085-.163.54.54 0 00-.024.187 2.463 2.463 0 01-2.973-2.4c.075-.092-.2-.124-.371-.2-.1-.082.011-.184.12-.268.318-.162.193-.309.243-.469a2.686 2.686 0 014.389-1.57 2.924 2.924 0 01.692.908c.136.339.4.746.038 1.131a2.927 2.927 0 010 .466c-.22-.142-.337-.257 0-.277-.337.022-.715-.072-.683-.111a2.463 2.463 0 01.515.047c.059-.024.207-.042.122-.073a3.691 3.691 0 01-.932-.052c-.395.067.721.212.662.36-.089-.026-.229-.042-.337-.063.116.14.271.375 0 .35-.1.014.375.176.464.283l-.328-.089c.191.11-.178.072.343.251.047.014-.231-.132-.132-.125l.177.077-.038-.1.09.045c-.017.068-.03.139-.052.2m-.241-.488l.333.1c-.007.04-.016.077-.025.115-.189-.089-.436-.193-.308-.214m.131-.12c-.287-.15-.012-.042.243.015 0 .012 0 .024-.006.036a1.928 1.928 0 01-.236-.051m.651-3.732c-.031.028-.047.046-.068.068l-.014-.012a.3.3 0 01.082-.056m-3.743-1.518a1.222 1.222 0 00-.007.127l-.105.006c0-.153.028-.238.113-.134m-3.329 7.501a1.179 1.179 0 01.1-.087l.075.082a.4.4 0 01-.174 0m1.613 1.083c.009-.02.014-.028.021-.047l.036.019c-.02.007-.036.025-.057.028m6.132-5.793a.614.614 0 00-.025-.059c.059 0 .119 0 .179.006-.057.016-.105.035-.155.053"/><path d="M28.082 15.263l.167-.118-.23.147zm-3.413-3.289a.848.848 0 00-.007.171l.075-.2c-.022.027-.042.059-.068.028m.696.234q.019.212.037.438a.565.565 0 00-.037-.438m.881.85c.054-.04.084-.144.153-.233-.054-.052-.122.041-.153.233m-1.933-.945l-.054.1.2-.2zm-.953.535a.608.608 0 00.017-.228zm2.762 5.111a.46.46 0 00.13.036l-.027-.047zm27.216 8.539c-.082-.106-.442.063-.741.188-.026-.053-.049-.108-.077-.16.009 0 .024-.011.031-.016.249-.208.061-.173-.12-.132-.028-.049-.057-.1-.087-.146a1.326 1.326 0 00.426-.285c.022.064-.067.129-.051.224.377-.426-.136-.3-.286-.283-.025.051-.14.148-.08.161l-.114.017c-.031-.043-.067-.082-.1-.124.082-.113-.028-.155.11-.311.239-.145 0 .189.27-.051-.032-.264-.528-.25-.934-.235a5.852 5.852 0 00-.187-.151l.088-.1a.5.5 0 01-.214 0c-.051-.037-.1-.078-.15-.113a.753.753 0 01-.026-.564c-.115.307-.181-.229-.438.294-.015-.007-.027-.017-.042-.025a.459.459 0 00-.04-.125l-.045.089c-.028-.014-.057-.024-.085-.036.017-.114.041-.24-.027-.255a1.381 1.381 0 01-.051.221c-.08-.035-.16-.073-.241-.1-.012-.2-.032-.4-.054-.593a2.539 2.539 0 00-.043.411c-.028-.093-.067.006-.105.12l-.069-.021c.025-.152.073-.353.108-.485-.094-.153-.255.328-.344.415-.015 0-.028-.009-.043-.011a.122.122 0 01-.015-.042v.038a4.341 4.341 0 00-.389-.069c.015-.359.177-.329.266-.51-.022-.118-.1-.167-.1-.348-.1.246-.241.58-.333.831h-.021c.09-.572-.116-.578-.178-.626.012.266.052.4.141.359a.533.533 0 01-.063.261 4.627 4.627 0 00-.233-.015c-.014-.121-.012-.307-.015-.483-.116.282-.2.105-.243.447-.1-.34.038-.108-.064-.448l-.069.322c-.085-.077.041-.35-.09-.413.009.2-.054.424-.15.39l.006-.121c-.038.115-.124.049-.079.325h-.031l-.116-.342.084.346h-.027c-.2-.194-.506-.976-.627-.47a.646.646 0 01.1.412c.179.241.03-.324.121-.4a3.974 3.974 0 01.1.509 4.366 4.366 0 00-.252.057 5.948 5.948 0 01-.132-.309c-.183-.016-.051.47-.29.3l-.058-.144c.24.6-.182-.1-.082.345-.108.045-.215.09-.319.145l-.023-.014.017.038c-.056.028-.108.062-.161.093a4.5 4.5 0 00-.2-.254c.043-.187.225.079.049-.431-.573-.459.12.557-.438.2l.386.61-.051.032a.729.729 0 00-.194-.2.961.961 0 00.146.234c-.078.054-.15.116-.225.176a.157.157 0 00-.093-.02.847.847 0 01.066.043c-.067.056-.135.108-.2.167h-.006v.007c-.016.015-.036.027-.052.043s-.032.037-.049.053c-.007-.014-.02-.032-.025-.042l.006.062a4.572 4.572 0 00-.767.966c-.337-.12-.726-.265-.591-.033a.808.808 0 00.471.256c-.015.026-.026.054-.04.08-.418-.155.153.165-.292.059a2.342 2.342 0 01.232.081 4.611 4.611 0 00-.245.669c-.056 0-.1 0-.166.007l.153.03c-.02.075-.051.147-.067.224a1.837 1.837 0 00-.056.657l-.288-.038a2.583 2.583 0 01.36.191.557.557 0 00.085.135c.118.148.233.278.161.426l-.126.045a.11.11 0 00.053.046c-.129.139-.272.293-.2.413a2.766 2.766 0 01-.215.033h.225a4.861 4.861 0 00.252.664c-.105.051-.2.1-.257.121a1.375 1.375 0 00.307.007 4.338 4.338 0 00.259.438c-.058.028-.108.049-.178.087l.205-.042.022.036c-.1.067-.1.122-.291.2.835-.26-.093.393.364.361l.019-.152c.058-.038.1-.058.135-.08.031.038.066.068.1.1-.152.153-.126.186-.2.345a2.912 2.912 0 00.361-.173c.069.073.131.155.205.221a.587.587 0 01-.192.3.688.688 0 01.32-.2c.08.068.167.125.252.187l-.024.03a.744.744 0 01-.111.051l.037.053a.789.789 0 01-.1.093c.043.043.33-.287.2-.021a.3.3 0 01-.208.124c.045.09.264-.068.427-.168.047.031.1.059.145.088v.006a4.619 4.619 0 00.423.208 3.5 3.5 0 01-.156.173c-.007.125.148-.01.291-.106.052.021.105.04.157.059a8.006 8.006 0 01-.082.2c.051-.049.111-.124.163-.179.026.01.052.016.079.024a.42.42 0 01-.014.074l.03-.069c.082.027.163.052.246.074a.546.546 0 01.015.171l.084-.141a5.061 5.061 0 00.61.1v.033-.032a4.643 4.643 0 005.331-4.228 1.427 1.427 0 01-.1-.207c0-.007 0-.017-.011-.022-.02-.043-.047-.087-.063-.13l.217-.014-.2-.113-.058.01a3.379 3.379 0 01-.089-.35l.011-.006-.015-.006c-.03-.15-.058-.3-.093-.445a1.269 1.269 0 01.194-.063l-.179-.071c-.014 0-.037.015-.052.017-.011-.038-.022-.077-.036-.115l.146-.068c.085-.073-.155-.014-.178-.033 0-.011.027-.03.1-.066.193-.1.246-.066.3-.049-.113-.036.285-.366.157-.51m-2.089 3.884c-.119-.109-.238-.22-.163-.215a1.694 1.694 0 01.191.158c-.01.019-.017.04-.027.057m0-.172a.1.1 0 00.068.011c-.007.015-.012.031-.02.045zm.193-.271a2.2 2.2 0 00-.412-.224c.054.052-.092.021.08.106.045.016.152.067.119.031l.2.121c-.011.032-.027.062-.041.093-.012-.066.019-.093-.356-.243.071.379-.395.464-.272 1.1l-.125-.221c.166.474-.39-.141-.115.462l-.019.011-.178-.281c-.083-.043.042.254.047.364l-.046.028a.51.51 0 01-.1-.1l.073.116-.032.02c-.011-.007-.024-.02-.03-.016l.017.025c-.038.02-.074.04-.113.057a.014.014 0 00.007-.014c-.041-.056-.043-.022-.041.027-.028.014-.059.024-.088.036-.015-.046-.021-.085-.032-.116-.043.209-.193-.03-.194.207-.078.025-.158.041-.238.058a.621.621 0 00-.085-.163.54.54 0 00-.024.187 2.464 2.464 0 01-2.975-2.4c.077-.092-.2-.124-.37-.2-.1-.082.01-.184.12-.268.318-.162.193-.309.241-.469a2.686 2.686 0 014.389-1.57 2.927 2.927 0 01.693.908c.136.339.4.746.038 1.131a2.927 2.927 0 010 .466c-.22-.142-.337-.257 0-.277-.337.022-.715-.072-.683-.111a2.479 2.479 0 01.515.047c.059-.024.205-.042.122-.073a3.691 3.691 0 01-.932-.052c-.4.067.721.212.662.36-.089-.026-.229-.042-.337-.063.116.14.271.375 0 .35-.1.014.375.176.464.283l-.328-.089c.191.11-.178.072.343.251.047.014-.231-.132-.132-.125l.177.077-.04-.1.092.045c-.017.068-.031.139-.052.2m-.245-.487l.333.1c-.007.04-.015.077-.024.115-.189-.089-.436-.193-.309-.214m.132-.12c-.287-.15-.014-.042.243.015 0 .012 0 .024-.006.036a1.879 1.879 0 01-.236-.051m.65-3.732c-.03.028-.046.046-.067.068l-.014-.012a.314.314 0 01.08-.056m-3.736-1.524a1.222 1.222 0 00-.007.127l-.105.006c0-.153.028-.238.113-.134m-3.323 7.5a1.178 1.178 0 01.1-.087l.075.082a.4.4 0 01-.174 0m1.613 1.083c.009-.02.014-.028.021-.047l.036.019c-.02.007-.036.025-.057.028m6.132-5.793l-.025-.059c.059 0 .119 0 .179.006-.057.016-.105.035-.155.053"/><path d="M52.751 26.31l.167-.118-.23.147zm-3.412-3.291a.849.849 0 00-.007.171l.075-.2c-.022.027-.042.059-.068.028m.696.235q.019.212.037.438a.565.565 0 00-.037-.438m.88.848c.054-.04.084-.144.153-.233-.054-.052-.122.041-.153.233m-1.93-.944l-.054.1.2-.2zm-.957.536a.608.608 0 00.017-.228zm2.763 5.111a.46.46 0 00.13.036l-.027-.047zM26.057 97.633l.026.2-.019-.272zm5.861 1.02a.781.781 0 00-.01-.171l-.062.205c.021-.03.041-.064.072-.035m-.97-.532a.551.551 0 00.163.416 3.554 3.554 0 00-.163-.416m-1.193.181c.083.022.111-.089.046-.276-.041.059-.017.166-.046.276m2.552.195l.061-.1-.224.21zm1.174-.475a.512.512 0 00-.064.223zm13.649-.183l-.052-.006c.016.04.035.03.052.006m13.362-2.637a.173.173 0 00-.054.124l.126-.028zM20.81 75.983l-.135.152.186-.2zm1.146 2.592l.118-.124-.166.126c.028-.015.059-.033.048 0m.066-.687a.992.992 0 00-.243.346l.243-.346m-.295-.434a2.771 2.771 0 00-.21.181c.01.043.1-.027.21-.181m.466 1.13l.09-.052-.22.078zm11.314 6.651a.314.314 0 00-.106.071l.061.021zM20.133 58.419l.068-.041-.022-.246zm-4.242-2.656a.7.7 0 00-.293-.173.62.62 0 00.293.173M2.87 35.278a.175.175 0 00-.168.051 2.479 2.479 0 00.22.307.674.674 0 01-.052-.358m-.262-3.105c.021 0 .04-.019.063-.019-.03-.115-.047-.079-.063.019m.567 7.125a5.465 5.465 0 00-.217.9c.145-.13.256-.24.217-.9m2.009 6.298c.165.142.189-.015.361.047-.214-.365-.39-.427-.361-.047M2.721 32.913l.157 1.183-.072-.862zm.346-5.871a.518.518 0 00.14.371zm31.379 47.442a.382.382 0 00-.084-.293l-.061.638z"/><path d="M64.638 40.24a31.215 31.215 0 00.428-4.615c.015 0 .024-.006.041 0-.02-.007-.022-.031-.038-.041a36.139 36.139 0 00-20.4-32.874l-1.578-.655a9.881 9.881 0 00-3.332-.75C37.548.834 35.364.029 33.066 0 14.854-.169.948 14.082.143 32.026c-1.026 9.918 3.528 17.532 11.5 23.013a105.463 105.463 0 0011.4 6.7c2.351 1.464 6.966 3.352 8.373 6.146h-.046l.063.042c.033.068.057.14.087.209a.31.31 0 01-.3.058c.848.445-.282.62.114 1.08l.1-.256a.773.773 0 01.186.022l.011.314c-.228.088-.226.174-.387.358a2.418 2.418 0 00.408.2l.024.645a.4.4 0 01-.371.257c.256.024.346.113.39.214l.026.7a.425.425 0 01-.042.007.759.759 0 01-.113-.11l-.014.146c-.071-.014-.122-.009-.135-.026 0 .13.433.131.147.3-.158 0-.165-.093-.23-.167-.036.187.231.348.411.5l.015.39-.009.007h.009c.014.372.024.745.036 1.117a1.868 1.868 0 01-.208-.1c-.106.115.068.265.219.436 0 .147.009.293.014.44a1.012 1.012 0 00-.192.038c.057.043.131.089.2.135 0 .083 0 .166.007.249-.015.006-.012.014-.031.02h.031l.022.678a.649.649 0 01-.11.129l.116.058v.157a24.43 24.43 0 00-.041 2.475.889.889 0 00.115.453c.041 1.815.074 3.63.088 5.445a.635.635 0 00-.5-.062l.215-.136c-.442.2.08-.418-.453-.063l-.017-.017.238-.219c.022-.1-.223.079-.335.12l-.046-.045a.8.8 0 01.069-.113l-.087.094-.028-.028.006-.022-.014.015-.073-.074c.035-.049.01-.046-.028-.028l-.066-.067c.036-.028.069-.048.094-.069-.2.042-.052-.191-.25-.09l-.151-.171a.579.579 0 00.1-.158.49.49 0 00-.173.082l-.412-.429c-.908-.886-1.438-2.122-2.293-3.061 0-.125-.256 0-.429.047-.134.006-.115-.14-.1-.285.094-.349-.131-.379-.244-.521l-.4-.366c-.3-.273-.646-.573-1.012-.883a7.568 7.568 0 001.625-4.4c-.033-.125-.064-.25-.1-.376l-.061-.238.188-.01-.209-.2-.031.007-.152-.605h.006s-.009-.006-.01-.01q-.1-.379-.209-.747a.71.71 0 01.223-.084l-.209-.151a.394.394 0 00-.085.016 9.576 9.576 0 00-.058-.181l.17-.092c.108-.132-.415-.01-.11-.187.189-.106.254-.043.319 0-.127-.088.228-.5.054-.741-.119-.179-.489-.016-.8.088-.043-.09-.094-.178-.141-.267a.438.438 0 00.041-.019c.229-.233.026-.241-.176-.239-.049-.085-.108-.166-.161-.247a.783.783 0 00.428-.275c.047.1-.037.162.007.307.328-.5-.257-.47-.442-.5-.014.066-.127.166-.047.2l-.135-.014a6.683 6.683 0 00-.168-.218c.058-.127-.1-.223.031-.387.261-.12.067.26.33.016-.116-.359-.754-.5-1.32-.62a5.81 5.81 0 00-.314-.271l.079-.074a.955.955 0 01-.247-.049c-.121-.09-.24-.186-.366-.267a.86.86 0 01-.157-.6c-.093.309-.32-.278-.579.187-.038-.019-.073-.042-.111-.059-.017-.027-.04-.053-.069-.1l-.03.051c-.054-.024-.111-.04-.166-.062 0-.108 0-.215-.1-.241a.8.8 0 01-.027.193c-.14-.056-.28-.113-.423-.16-.057-.208-.122-.408-.183-.6a1.562 1.562 0 000 .421c-.056-.094-.1-.019-.141.083-.041-.012-.084-.02-.125-.031a3.762 3.762 0 01.1-.464c-.157-.166-.351.267-.488.371-.033-.006-.066-.017-.1-.024-.006-.01-.014-.011-.02-.027v.022a7.581 7.581 0 00-.656-.082c0-.364.275-.329.4-.5-.043-.121-.162-.181-.186-.359l-.507.825H20c.134-.57-.2-.584-.3-.634.02.266.087.4.231.364a.351.351 0 01-.109.267h-.38a3.433 3.433 0 01-.016-.5c-.2.286-.32.11-.415.454-.146-.337.068-.109-.079-.447l-.134.33c-.132-.071.089-.359-.115-.41 0 .2-.122.434-.276.407l.024-.122c-.078.126-.215.059-.156.384h-.04l-.167-.379.1.386c-.312-.09-.7-1-.976-.424.134.089.11.325.088.418.241.218.108-.346.259-.436a2.492 2.492 0 01.077.565c-.131.031-.265.054-.393.093a3.5 3.5 0 01-.172-.34c-.276.02-.181.513-.512.384l-.054-.144c.23.619-.273-.108-.205.443-.17.074-.33.162-.494.246l-.059-.066.028.082c-.087.046-.177.082-.262.131a2.731 2.731 0 00-.231-.26c.113-.23.306.03.183-.515-.687-.386.019.612-.664.349l.375.647-.078.052a.484.484 0 00-.224-.209.6.6 0 00.147.26c-.131.09-.262.177-.387.276a.209.209 0 00-.116 0 .7.7 0 01.073.033 6.193 6.193 0 00-.324.28c-.057.051-.118.1-.172.148 0-.009-.01-.022-.011-.03l-.006.045A6.906 6.906 0 0012.8 69.73c-.351-.087-.747-.191-.645.1a.527.527 0 00.457.287c-.021.045-.043.088-.063.134-.427-.135.127.214-.338.157a1.436 1.436 0 01.23.066c-.007.019-.019.035-.025.054-.113.337-.254.689-.371 1.048-.056.012-.094.016-.163.036l.142.022a3.152 3.152 0 00-.176 1.446l-.308-.053a2.069 2.069 0 01.374.32 1.8 1.8 0 00.063.2 1.025 1.025 0 01.176.716c-.045.022-.078.043-.126.067a.165.165 0 00.057.075 1.118 1.118 0 00-.157.661 1.911 1.911 0 01-.221.028c.075.015.153.017.229.03a4.393 4.393 0 00.355 1.1c-.09.052-.176.1-.23.125a1.225 1.225 0 00.307.071l.056.141c.108.218.244.4.365.6-.059.026-.11.045-.182.082l.228-.006a.875.875 0 00.035.057c-.1.073-.079.157-.283.224.9-.152-.006.547.526.622-.009-.071-.02-.14-.022-.213a.991.991 0 01.137-.074c.048.063.1.114.153.174-.14.174-.1.226-.146.428a2.263 2.263 0 00.4-.134c.108.121.208.254.322.366a.422.422 0 01-.151.355c.173-.141.277-.168.355-.158.13.12.271.217.406.325-.01.012-.012.022-.025.036a.683.683 0 01-.135.028l.069.082c-.054.046-.087.087-.105.088.071.068.358-.261.261.036-.1.12-.158.079-.243.092.082.126.335 0 .533-.077a7.411 7.411 0 00.928.547 2.385 2.385 0 01-.182.158c.022.141.215.035.4-.037.087.04.173.077.26.113a1.716 1.716 0 00-.068.2c.063-.043.136-.109.2-.157.043.017.088.03.131.046a.244.244 0 010 .079l.028-.069c.136.051.272.1.411.144a.547.547 0 01.063.189l.1-.131a7.717 7.717 0 001.027.212l.012.042v-.038a8.252 8.252 0 005.183-.95c-.009.014-.009.017-.017.032l.071-.067c.1-.058.194-.127.292-.189.083-.053.167-.105.249-.162.026.03.051.057.075.087a.24.24 0 00-.038.09.83.83 0 01.056-.071c.032.038.064.074.1.111l-.002.027.016-.011.053.062-.046.033.058-.02c.155.181.311.363.464.535-.224.272-.494.59-.29.48a1.47 1.47 0 00.391-.363l.033.038c-.29.317.188-.116-.1.231.033-.037.1-.1.155-.162l.011.012.261.283c-.028.042-.051.072-.085.125l.1-.108.089.1c.1.079.148.207.283.249l-.213.2a2.689 2.689 0 01.329-.192.435.435 0 00.121-.01c.14-.017.273-.03.28.089l-.074.1c.021 0 .041-.022.061-.033-.051.161-.127.346-.035.363-.041.04-.09.089-.157.151l.176-.136c.11.079.217.16.325.239-.077.087-.145.163-.189.21A2.876 2.876 0 0026.48 82l.238.173c-.047.045-.087.082-.144.139l.17-.12.019.014a1.644 1.644 0 01-.238.267c.681-.521-.083.3.28.108l.025-.116c.053-.053.09-.087.125-.118l.067.048a1.3 1.3 0 00-.2.328c.087-.062.2-.153.313-.245l.137.1a.782.782 0 01-.214.3.953.953 0 01.307-.234c.049.036.1.071.147.108l-.028.031-.1.058.016.037c-.052.047-.088.084-.1.092.021.026.33-.283.158-.051a.493.493 0 01-.193.134c.007.059.228-.1.382-.2l.08.058-.007.01.01-.007c.077.057.147.12.223.178-.035.027-.077.062-.162.127-.053.094.093 0 .23-.073l.088.071-.125.139c.046-.031.1-.073.158-.111l.051.041-.014.02.017-.017.137.111a.792.792 0 01-.049.09l.083-.064a18.158 18.158 0 013.669 3.69c0 2.9-.057 5.8-.172 8.7-2.324.1-4.686.2-6.559.247-.716-.033-1.745.228-2.4-.188a1.01 1.01 0 100 1.7 1.387 1.387 0 01.509-.193v.184l.182-.141c0-.027-.006-.045-.009-.069a3.608 3.608 0 01.517 0l.006.011s.007-.009.012-.01l.652.02a.736.736 0 010 .2l.171-.145v-.052h.171l.019.16c.047.105.1-.139.134-.155h.009c.011.006.022.036.032.115.02.215-.047.254-.093.3.105-.1.288.406.5.354.157-.027.181-.427.229-.75l.251.007v.045c.066.324.16.139.249-.037l.239.007a1.017 1.017 0 00-.02.52c-.083-.017-.087-.134-.2-.17.181.548.408.069.523-.064-.033-.049-.041-.2-.105-.161l.089-.116.21.007c.047.142.191.087.22.3-.064.273-.188-.125-.179.234.256.148.681-.217 1.1-.488l.34.012-.02.124a.6.6 0 01.2-.116l.311.012a.705.705 0 01.382.466c-.045-.323.318.118.344-.436h.08a1.28 1.28 0 00.1.077l.007-.073.139.006c.032.1.064.21.146.2a1.084 1.084 0 01-.035-.2l.369.015.262.532a1.764 1.764 0 00-.082-.41c.062.077.08 0 .093-.111h.105c.012.151.01.339.007.464.135.116.217-.311.3-.45h.1c0 .007.007.006.01.014v-.012l.532.022c.006.329-.2.314-.273.506.045.115.137.151.166.332.085-.246.223-.574.333-.828h.024c-.073.548.171.551.241.6-.014-.266-.067-.4-.179-.354a.453.453 0 01.059-.238l.332.014c.009.121 0 .3 0 .463.16-.277.246-.1.343-.433.09.345-.059.105.03.45l.127-.312c.1.089-.1.341.051.422.016-.2.135-.412.25-.363l-.032.119c.073-.11.17-.009.176-.307h.035l.063.351-.016-.35h.042c.208.244.308 1.058.6.608a.528.528 0 01.033-.422c-.13-.288-.16.3-.282.348a2.564 2.564 0 01.052-.517l.334.014c.012.09.024.2.035.344.2.08.271-.429.471-.174l-.006.155c.035-.651.148.192.286-.293l.442.017.011.069.01-.068.231.009c.009.111.022.219.042.341-.163.137-.189-.184-.314.344.27.693.228-.548.537.066l.056-.739h.072a.6.6 0 00.041.3.71.71 0 00.031-.3l.361.011c.027.045.054.083.08.09a.448.448 0 01-.024-.088l.33.011v.017l.006-.017.181.006-.02.054.059-.053c.535.017 1.055.031 1.566.043.075.353.152.772.3.548a.682.682 0 00.042-.539h.115c.042.444.113-.209.214.24-.006-.056-.02-.14-.022-.235h.045l.855.02c.02.052.032.09.061.155 0-.04-.006-.1-.01-.153l.294.007a4.372 4.372 0 00.834-.022l-.025.292a1.675 1.675 0 01.217-.369.878.878 0 00.173-.093.67.67 0 01.577-.14c.015.046.03.08.046.13a.148.148 0 00.067-.046c.162.146.325.311.49.26 0 .057 0 .127-.011.218l.066-.219c.294-.012.59-.021.886-.035a2.437 2.437 0 01.028.255 1.556 1.556 0 00.131-.261h.12c.179-.017.36-.027.541-.043 0 .056-.007.1-.007.168l.067-.173.067-.006a.6.6 0 01.041.327c.251-.848.349.278.609-.115l-.145-.1a1.439 1.439 0 01.011-.151c.062 0 .122-.009.184-.015.047.205.1.2.2.359a3.187 3.187 0 00.1-.382l.389-.032a.458.458 0 01.126.354c.012-.228.053-.323.1-.372l.411-.033a.255.255 0 010 .032.785.785 0 01-.063.113l.083.014a.627.627 0 01-.015.135c.074 0 .074-.433.17-.147 0 .158-.052.165-.094.23.1.036.194-.226.281-.406l.223-.017v.006-.007c.21-.015.421-.037.632-.051a2.851 2.851 0 01-.058.223c.068.109.157-.085.259-.239l.234-.014c.007.073.016.145.024.21.026-.062.054-.145.083-.214l.129-.006c0 .02.011.019.016.046v-.046c.125-.007.251-.01.376-.016a.428.428 0 01.078.12l.036-.125q1.206-.067 2.412-.1a.894.894 0 001.507-.038 90.824 90.824 0 017.774.186.858.858 0 100-1.7c-.139.017-.278.024-.418.037-.1-.306.059-.662.191-.662.062.183-.042.338-.064.5.063.048.114.184.176.093a1.394 1.394 0 01.116-.956c-.317-.235-.569.8-.888.757a1.693 1.693 0 00.04-.32c-.367.1-.82.247-.966-.012-.124-.1-.146.413-.3.533l-.071-.339c-.083.217-.34-.145-.249.407.009.048.073-.264.145-.167l-.012.193.166-.069-.03.136c-.147 0-.294.007-.442.009a1.113 1.113 0 00.093-.485c-.063.072-.145-.073-.156.119.01.047.009.167.051.12l-.062.247h-.243c.122-.058.235 0 .161-.44-.671.231-1.6-.108-2.374.455l.125-.249c-.372.455-.531-.349-.807.27h-.057l.028-.318c-.115-.084-.224.212-.338.322h-.14a.436.436 0 01-.069-.13l.012.13h-.087c-.01-.009-.017-.022-.031-.022l.006.022h-.245.012c-.025-.066-.061-.04-.1.006h-.2c.011-.049.035-.09.04-.125a.286.286 0 01-.239.049.206.206 0 01.1-.056c.1-.053-.412-.063-.532-.131l.338-.03c-.217-.037.145-.148-.407-.109-.048 0 .264.032.167.063h-.192l.069.072-.135-.014c-.007-.064-.011-.129-.017-.193a2.4 2.4 0 00.491.041c-.072-.027.073-.062-.119-.067-.047 0-.166 0-.12.022l-.254-.028c0-.038 0-.077-.009-.116.083.058-.015.116.454.082-.23-.292.108-.7-.455-1.033l.249.054c-.46-.165.369-.233-.294-.355v-.021l.343.014c.093-.056-.275-.109-.343-.163v-.03a.342.342 0 01.15-.046l-.15.006a.2.2 0 000-.027c.02-.007.041-.014.042-.024h-.042v-.139c.015.009 0 .025.021.036.075-.012.037-.03-.02-.049v-.079c.053 0 .1.014.135.016-.171-.106.1-.167-.122-.235 0-.074.007-.148.011-.221a.612.612 0 00.184-.041.464.464 0 00-.179-.062 39.926 39.926 0 01.562-4.208c.116-.2-.719-.2-.2-.522.307-.171.182-.342.2-.511a10.622 10.622 0 009.4-10.312c-.025-.3-.064-.588-.106-.875h.124l-.151-.205a12.682 12.682 0 00-.515-2.061.464.464 0 01.156-.052l-.239-.233h-.024c-.033-.092-.068-.184-.1-.276l.12-.073c.059-.1-.124-.1-.2-.139a.626.626 0 00-.02-.056.228.228 0 01.079-.074.234.234 0 01.337.038c-.144-.139.168-.632-.052-.97-.155-.254-.535-.094-.864-.014-.069-.126-.141-.247-.214-.37a.428.428 0 00.062-.025c.228-.28-.053-.316-.291-.353-.072-.11-.148-.214-.223-.319.072-.1.3.015.478-.287.071.132-.01.2.064.39.28-.579-.379-.635-.6-.709 0 .078-.114.182-.015.246l-.239-.067c-.062-.082-.13-.157-.194-.236.114-.163-.136-.322-.006-.516.283-.1.131.329.391.083-.215-.486-1.091-.8-1.855-1.055a7.78 7.78 0 00-.359-.282l.136-.11A1.318 1.318 0 0157.9 67.8c-.074.33-.486-.387-.76.161-.026-.014-.052-.03-.079-.042-.03-.083-.075-.108-.161-.207l-.064.1c-.062-.028-.126-.053-.189-.082-.02-.129-.02-.275-.179-.323a.6.6 0 01-.015.24 11.433 11.433 0 00-.574-.218c-.109-.238-.224-.464-.329-.676a1.192 1.192 0 00.035.431c-.088-.105-.142-.022-.189.082-.057-.016-.115-.028-.172-.045a2.741 2.741 0 01.1-.474c-.225-.186-.459.238-.64.337-.051-.011-.1-.026-.15-.036-.007-.01-.015-.01-.021-.021v.017c-.3-.063-.612-.11-.921-.146.019-.327.377-.3.538-.452-.066-.124-.23-.192-.269-.369l-.655.786h-.046c.144-.531-.293-.558-.424-.608.026.266.119.4.322.367a.318.318 0 01-.1.221c-.2-.011-.4-.011-.6-.012a3.651 3.651 0 01-.006-.443c-.276.288-.442.121-.584.459-.183-.325.1-.109-.092-.442-.069.1-.135.223-.2.338-.179-.063.137-.366-.14-.407-.007.2-.189.445-.4.428l.04-.126c-.108.122-.28.072-.257.323l-.077.011-.165-.3.092.313-.125.02c-.38-.194-.763-.845-1.145-.292.17.077.113.325.071.424.3.2.186-.369.4-.475a1.5 1.5 0 01.046.486 9.19 9.19 0 00-.589.167 2.951 2.951 0 01-.147-.272c-.369.056-.312.557-.734.469l-.052-.146c.205.6-.3-.022-.337.444a10.57 10.57 0 00-.721.38l-.031-.028.011.04c-.12.071-.239.146-.356.221a2.1 2.1 0 00-.243-.235c.183-.272.389-.02.319-.6-.8-.313-.083.667-.891.495l.343.646-.106.078a.368.368 0 00-.231-.183.436.436 0 00.127.265 8.337 8.337 0 00-.5.4.33.33 0 00-.168.028.608.608 0 01.1.028c-.148.129-.291.27-.436.41-.011-.01-.02-.014-.031-.024 0 .015 0 .028.01.043-.077.074-.156.144-.231.22a.752.752 0 01-.022-.094l-.045.157a12.088 12.088 0 00-1.647 2.188c-.385-.053-.848-.151-.772.229.1.293.286.3.475.309l-.1.188c-.464-.13.092.26-.4.25a1.024 1.024 0 01.239.057c-.012.026-.026.048-.038.073-.162.44-.349.939-.5 1.458-.057.022-.1.032-.171.064.037.006.1.012.145.019a5.656 5.656 0 00-.264 2.006l-.306-.066a2.291 2.291 0 01.361.428 2.738 2.738 0 00.067.29 1.714 1.714 0 01.165 1.023c-.036.025-.062.047-.1.073a.278.278 0 00.069.122 2.25 2.25 0 01-.14.384 2.837 2.837 0 00.027.5 1.2 1.2 0 01-.238.028c.079.026.162.038.243.062a6.963 6.963 0 00.468 1.534 2.144 2.144 0 01-.223.137 1.371 1.371 0 00.328.134c.026.064.053.131.078.2.144.3.3.58.457.855-.053.024-.1.037-.158.069l.212.025.062.094c-.079.078-.052.182-.254.233.969-.046.078.7.688.882a2.18 2.18 0 01-.064-.272.738.738 0 01.14-.071c.066.089.135.171.2.257-.119.189-.063.26-.078.5a1.9 1.9 0 00.406-.082c.155.182.318.351.481.521a.4.4 0 01-.113.386.432.432 0 01.369-.124q.273.262.558.5v.009a.83.83 0 01-.158.009l.1.109c-.058.042-.089.084-.11.083.1.093.385-.236.323.093-.1.119-.178.062-.278.059.118.16.395.067.624.019a10.413 10.413 0 001.279.808 2.021 2.021 0 01-.184.124c.051.155.271.082.5.035.126.062.25.124.376.179a1.2 1.2 0 00-.052.192c.068-.033.145-.083.217-.125l.212.087c0 .022.01.025.007.056l.017-.046c.2.078.4.15.6.215a.585.585 0 01.1.179l.115-.113a10.951 10.951 0 001.458.335l.014.027v-.025c.281.043.563.078.846.1a.471.471 0 00.028.285l-.291-.01a2.7 2.7 0 01.369.094.458.458 0 00.092.075c.111.083.219.167.14.25l-.129.02c.011.017.045.012.066.02-.148.074-.334.148-.281.223h-.217l.22.028.063.385c-.116.007-.219.012-.285.014a2.76 2.76 0 00.3.066l.048.283-.205-.007.209.035v.022a1.743 1.743 0 01-.36.019c.849.109-.275.152.12.265l.1-.062h.176c0 .026.009.052.012.078a1.34 1.34 0 00-.377.087c.105.017.251.033.4.048l.025.16a.81.81 0 01-.369.062.946.946 0 01.386.051c.01.057.019.115.027.172h-.043l-.113-.027-.014.036c-.071 0-.122 0-.136-.006 0 .031.434.032.147.073a.493.493 0 01-.23-.041c-.037.046.234.085.413.124l.015.094h-.012.012c.014.092.024.183.036.275-.043 0-.1-.011-.209-.025-.105.028.071.066.22.108l.015.108-.194.009c.057.011.132.022.2.035l.009.059a.21.21 0 01-.035 0h.019l.022.166a.682.682 0 01-.113.032l.119.015a17.789 17.789 0 01.061 4.392c-2.5-.075-5-.251-7.5-.492-.4-.028-.8-.03-1.2-.046-.2-.087-.4.181-.6.337-.2.1-.4-.017-.6-.134-.4-.313-.8-.173-1.2-.192l-1.2.03-2.4.057c-.981.037-2.1.083-3.273.132a.853.853 0 01-.264-.574c.085.061.219.043.32.069-.094-.651-.247-1.454.014-1.714.1-.219-.412-.26-.533-.536l.339-.124c-.217-.148.145-.6-.407-.443-.048.017.264.13.167.257l-.192-.021.068.293-.1-.04c0-.26-.014-.518-.02-.778a.718.718 0 00.463.145c-.072-.111.073-.256-.119-.276-.047.019-.166.016-.12.09l-.228-.1c0-.134-.007-.266-.01-.4.043.2.019.371.429.246-.231-1.19.108-2.833-.455-4.213l.249.221a.672.672 0 01-.131-.523c.041-.046.1-.072.127-.129a.868.868 0 000-.838l.053.009c.077-.189-.165-.369-.291-.553a2.806 2.806 0 01.6-.518c.052-.2-.367.094-.626.218a.413.413 0 01.122-.116l-.144.024v-.025l.071-.066-.071-.017v-.017a.161.161 0 00.035-.084l-.036.015v-.562c.012.041 0 .1.02.145.074-.052.037-.121-.02-.2v-.333c.057.016.1.064.14.075-.172-.44.11-.69-.134-.971 0-.3.011-.594.014-.891a.344.344 0 00.193-.17.546.546 0 00-.187-.259q.015-1.479.045-2.96a.816.816 0 00.137-.455q-.02-1.141.021-2.275c.33-.516.638.359.617 1.044-.188.322-.337-.233-.492-.354a1.976 1.976 0 00-.109.935c.3-.429.713-.132.948.631.24-1.668-.756-3.031-.445-4.666.053.184.2.161.286.25a9.739 9.739 0 01.64-2.643 3.387 3.387 0 011.109-1.491c.426-.38.145-.789.634-1.425l.491.028c.157-.46 1.471-.909.766-1.1-.069-.01-.153.437-.509.574l-.069-.188c-.22.187-.408.4-.614.594l.03-.2a15.263 15.263 0 011.862-1.361c-.194.27-.281.588-.144.667.236-.235.669-.339.617-.533-.069-.011-.126-.116-.287.041l.148-.381q.54-.327 1.1-.63c-.541.359-1.057.61-.5.786 1.45-.985 3.474-1.872 5.489-2.966a28.7 28.7 0 005.663-3.807l-.432.6c1.465-1.554 2.669-1.439 3.486-2.946.069-.057.14-.114.209-.173l.092.384c.627-.428.89-1.177 1.4-1.708l.109-.106a1.8 1.8 0 01.64-.385l-.189-.061.168-.166a2.019 2.019 0 00.353-.268l-.094.012q.67-.674 1.3-1.38c.011.1-.219.29-.334.445.205-.071.334-.317.469-.6.2-.229.408-.457.605-.692.012.075-.049.221-.043.275.775-1.156 1.453-1.656 1.746-2.527a27.943 27.943 0 001.507-2.412 1.177 1.177 0 00.4-.365 2.283 2.283 0 00.219-.84 24.613 24.613 0 002.243-7M48.462 60.03c-5.982 3.83-11.8 5.141-14.714 9.738a174.1 174.1 0 00.167-4.96c.08-.389-.2-.729-.335-1.064a1.844 1.844 0 01.132-1.064 5.179 5.179 0 00.193-2.128c-.016-1.368-.071-4.965-.087-6.383-.021-1.016-.047-2.132-.073-3.281a.777.777 0 00.777-.214c-.13-.419.287-.535.484-.758.144-.126.38-.32.642-.535a1.2 1.2 0 01.077.094c.026 0 0-.048-.059-.108.193-.156.4-.32.6-.479a1.11 1.11 0 01.213.167l-.142-.223.136-.109a.168.168 0 01.026 0l-.012-.012.23-.182.011.007-.007-.01.24-.188c.147.114.241.163.134-.043-.011-.009-.022-.025-.033-.035l.015-.012.415-.329c.026.04.048.074.1.148.539.448-.3-.468.2-.089l-.152-.181c.277-.221.573-.46.861-.7.1.088.161.119.105.011a.606.606 0 00-.043-.062c.334-.278.655-.551.886-.773.089-.118.29-.124.172-.449-.03-.132-.061-.267.062-.25.161.058.4.2.393.084.092-.115.194-.22.277-.344a13.673 13.673 0 014.113-4.587c1.39-.828-.384-2.588-1.205-1.2-.021.032-.048.059-.071.092-.228-.2-.413-.5-.377-.537a2.646 2.646 0 01.318.395c.049.02.153.108.111.022a3.343 3.343 0 01-.6-.742c-.255-.1.369.75.243.794-.048-.073-.139-.17-.2-.251-.038.172-.073.4-.287.245-.1-.04.231.346.266.476l-.245-.235c.119.183-.2-.02.2.369.035.033-.153-.215-.069-.162l.125.146v-.094l.09.121c-.038.047-.074.1-.111.141a2.685 2.685 0 00-.316-.418c.03.071-.09-.016.033.13.035.032.114.121.1.077l.17.234c-.026.031-.049.064-.075.1-.067-.16.115-.064-.264-.437-.042.346-.537.333-.39.955l-.129-.218c.208.466-.479-.217.02.53l-.303-.36c-.144-.052.366.62-.031.287l.137.144c-.015.014-.079-.047-.1-.036l.064.061a.22.22 0 01.025.087l-.048.048a.2.2 0 01-.053-.014c-.1-.114-.025-.066-.041-.108-.115-.1.038.132.032.183l-.006.006a.817.817 0 01-.179-.21c.049.223-.262-.045.011.377-.015.014-.027.028-.043.042a.822.822 0 00-.083-.077l.067.093c-.016.015-.028.031-.045.046a1.689 1.689 0 00-.29-.24 1.281 1.281 0 00.176.33c-.027.024-.057.043-.084.066l-.041-.048c-.022 0-.014.031.009.075-.031.025-.064.048-.1.074-.063-.046-.072-.021-.052.041-.049.041-.1.08-.152.12l-.011-.009v.019c-.067.053-.132.106-.2.157a.785.785 0 01-.12-.125 1.54 1.54 0 01.105.137 15.866 15.866 0 01-1.783 1.206c-.125.084-.229.186-.344.278-.1-.009-.014.161.049.312a1.317 1.317 0 00-.2-.174.8.8 0 01.042.325c-.022 0-.038 0-.061-.009-.324-.118-.33.084-.449.173-.026.028-.053.062-.08.092l-.116-.12c.006.066.017.141.03.219-.217.24-.436.486-.638.729l-.012-.015.009.019-.061.069-.026.032c-.11-.121-.226-.246-.317-.361 0 .13.246.466-.124.2.1.129.2.23.3.341l-.012.017c-.073-.08-.148-.163-.244-.26-.188-.172.011.085.027.145a1.034 1.034 0 01.183.157l-.046.057-.043-.061c-.288-.068-.389.17-.4.447l.077-.041.047.061a2.097 2.097 0 01-.083.1c-.048-.048-.1-.1-.162-.155l.146.174-.116.147c-.183-.127-.109.054-.207.028a.792.792 0 00.079.132l-.056.071-.02-.025c-.024.063-.094.088-.1.181-.658.835-1.346 1.705-1.949 2.388l-.03.033c-.012-.007-.016 0-.01.011-.012.015-.025.028-.038.042-.13-5.484-.291-11.854-.363-16.513l-.037-2.128a5.666 5.666 0 01.224-2.128.9.9 0 10-1.7 0 3.82 3.82 0 01.194.9l-.184-.009c.052.108.1.214.14.322l.069-.015a9.39 9.39 0 010 .919l-.011.01c0 .007.009.014.011.022l-.021 1.157a.445.445 0 01-.2 0l.145.3a.321.321 0 00.052.011v.293l-.16.032c-.1.083.136.168.155.236v.016c-.006.021-.036.04-.115.056-.214.037-.252-.08-.3-.163.1.187-.4.511-.351.891.026.28.424.32.747.407 0 .147-.006.3-.009.445-.012 0-.032-.009-.043-.007-.323.116-.14.283.036.442 0 .147 0 .291-.009.439-.106-.006-.224-.182-.517-.051.017-.147.134-.152.17-.356-.547.32-.067.724.064.928.051-.059.2-.073.161-.188l.114.156c0 .127 0 .25-.006.379-.14.083-.087.337-.294.39-.273-.116.125-.335-.234-.318-.148.454.214 1.2.485 1.936 0 .2-.009.4-.014.609l-.121-.035a1.381 1.381 0 01.115.354c0 .189-.009.372-.012.562a1.028 1.028 0 01-.463.674c.322-.08-.118.562.433.61v.145c-.026.046-.038.1-.075.182l.071.014v.245c-.1.058-.209.116-.2.26a.588.588 0 01.2-.061l-.015.648c-.183.166-.36.328-.532.469a1.165 1.165 0 00.41-.142c-.077.108 0 .142.111.162v.187a2.7 2.7 0 01-.464.012c-.116.24.312.385.452.541v.176c-.006.006 0 .012-.014.02h.014l-.022.945c-.33.01-.316-.35-.507-.485-.115.077-.151.241-.332.292.246.152.575.4.829.593v.041c-.549-.13-.552.3-.6.428.266-.025.4-.119.354-.319a.315.315 0 01.239.108c0 .2-.009.39-.014.585a3.32 3.32 0 01-.464-.007c.277.283.1.437.433.609-.345.158-.105-.106-.45.052l.312.228c-.088.166-.342-.173-.422.088.2.03.412.24.363.445l-.119-.059c.11.13.009.3.308.313v.061l-.354.111.353-.028v.073c-.241.37-1.062.547-.61 1.063.129-.132.344-.011.423.059.287-.23-.3-.283-.349-.5a1.467 1.467 0 01.52.094c0 .2-.01.393-.014.59a2.983 2.983 0 01-.346.062c-.079.349.429.481.174.838l-.155-.011c.652.062-.193.264.294.506 0 .264-.01.521-.016.782l-.071.021.071.02c0 .136-.006.271-.009.407a2.129 2.129 0 00-.345.077c-.137-.288.186-.337-.344-.558-.693.479.548.4-.066.953l.742.1v.126a.373.373 0 00-.3.074.435.435 0 00.3.053c0 .213-.01.428-.014.64a.332.332 0 00-.092.144.576.576 0 01.089-.057l-.011.6h-.02l.019.011v.32c-.019-.012-.045-.026-.056-.036l.054.109c-.017.935-.035 1.867-.048 2.778-.351.135-.767.27-.544.531a.424.424 0 00.537.077v.2c-.439.075.21.2-.238.38a1.333 1.333 0 01.233-.04l-.02 1.6c-.051.036-.089.057-.153.108.04 0 .1-.011.152-.017 0 .171 0 .351-.006.521a13.735 13.735 0 00.022 1.48l-.292-.045a1.882 1.882 0 01.37.386 2.228 2.228 0 00.093.307 1.913 1.913 0 01.139 1.022c-.046.027-.08.054-.13.08a.285.285 0 00.047.121 1.516 1.516 0 00-.26.867 1.375 1.375 0 01-.219-.02l.223.118c.014.329.026.659.041.99a18.313 18.313 0 00-2.112-1.81l-.021-.033c-.068.004-.087.004-.107-.013a35.122 35.122 0 00-3.054-1.966.164.164 0 01.089-.177l-.893-.348c-.027 0-.032.021-.054.027l-.794-.452-.007-.184c-.173-.214-.5-.142-.7-.219l-.057-.032a.217.217 0 01-.1-.177c0-.243.342-.1.59-.02-.557-.194-1.2-1.119-2.249-1.632a1.313 1.313 0 00-1.433.045q-.6-.334-1.193-.673c0-.007.016-.011.016-.019-.146-.433-.645-.539-1.132-.626-.4-.234-.8-.473-1.2-.711.125-.043.556.068.374-.351.377.24.333.349.854.693-.577-.958-1.857-1.182-2.466-1.4.129.137.088.29.406.434l-.371-.119q-.531-.332-1.054-.673c-.163-.254-.828-.617-.839-.881.436-.025.78.666.932.337-1.044-.849-3.062-1.816-4.9-3.013-.49-.422-.961-.862-1.422-1.312l.131-.012a6.345 6.345 0 01-.579-.437 27.648 27.648 0 01-1.6-1.767 3.828 3.828 0 01-.668-1.555c-.145.376-.777-1.342-1.315-1.276-.108-.181-.21-.364-.313-.549a14.379 14.379 0 01-.124-.319h-.056c-.031-.058-.066-.111-.1-.168-.1-.178-.171-.364-.261-.546a1.191 1.191 0 00-.13-.714.531.531 0 01-.094.244 16.4 16.4 0 01-.7-1.792 8.6 8.6 0 01.118-1.448.941.941 0 00-.3.51c0-.3-.085-.395-.189-.432a18.608 18.608 0 01-.124-.569 1.075 1.075 0 01.421-.11 3.288 3.288 0 00-.66-1.379 25.349 25.349 0 01-.2-3.533c.144-.02.212.174.254.439a4.818 4.818 0 00.255 1.055c.105-.229.119-.7.293-.848a17.654 17.654 0 01-.772-1.823v-.074c.558.478.609-.885.672-1.26-.27.051-.413.327-.395.932-.132-.035-.189-.182-.23-.355.015-.2.022-.395.04-.59.032-.389.074-.775.116-1.162a1.459 1.459 0 01.426.075c-.157-.869.087-1.3-.178-1.858.407-.419.061.33.468-.088l-.21-.725c.156-.479.267.565.453-.189a1.436 1.436 0 01-.1-1.367l.074.194c-.016-.4.2-.878-.083-.977.014-.057.025-.114.038-.17l.429-.246h-.365c.017-.073.04-.144.058-.217a6.818 6.818 0 01.81-1.153 2.461 2.461 0 00.683-1.689c-.25.327-.335-.08-.34-.308-.5.554.009.9-.161 1.514-.171-.009-.286-.213-.4-.407q.275-.846.591-1.677a1.228 1.228 0 01.382-.051c.385-.954.182-1.477.835-2.343l.126.1c-.5-.448.479-.622.392-1.48.369-.688.768-1.35 1.189-2l.115-.019-.035-.109c.218-.332.439-.659.671-.98a1.225 1.225 0 00.437.022c-.411.742-.739.7-.63 1.544a1.435 1.435 0 00.771-1.059 1.566 1.566 0 01.885-1.161l-.418-.72c.075-.092.144-.191.219-.281.064.1.153.172.387.027.033-.2-.021-.285-.119-.32.4-.459.8-.908 1.227-1.341a2.143 2.143 0 00.423-.286 1.278 1.278 0 01-.235.082c.434-.436.9-.84 1.357-1.246h.012c0-.007.007-.016.009-.024.245-.215.485-.436.736-.642a1.237 1.237 0 01-.053.122l.178-.218A30.469 30.469 0 0120.3 5.04a1.488 1.488 0 001.595-.124c.452-.359.3-.47.068-.557.181-.067.365-.121.546-.184.34.3.488-.406 1.122-.155-.046-.038-.156-.079-.2-.155A31.966 31.966 0 0128.012 2.8c.114.036.244.073.4.114a1.165 1.165 0 00-.084-.166 31.611 31.611 0 013.589-.329v.032l.1-.033a32.195 32.195 0 012.262.006l.015.007-.193.365a5.95 5.95 0 011.148-.3 31.1 31.1 0 013.955.526c.057.058.118.105.173.166a2.518 2.518 0 00.367.059Q40.9 3.8 42.1 4.3a.465.465 0 01-.132.194c.137-.027.287-.048.427-.075.426.174.851.361 1.273.511.834.377 1.988 1.013 2.821 1.425.032.019.062.041.094.059a.71.71 0 01-.009.308 5.108 5.108 0 00.758.165 34.116 34.116 0 012.84 1.957.7.7 0 00-.137.111l.408.088c.084.067.17.131.254.2.007.137.217.344-.031.4a1.6 1.6 0 01.8.261c.078.066.156.131.233.2a2.35 2.35 0 01.308.41 2.675 2.675 0 001.1 1.2l-.481-.6a.277.277 0 01.135-.067c.259.243.506.5.757.746a6.626 6.626 0 00.428.916 2.812 2.812 0 00.614.148c.51.552 1.007 1.115 1.482 1.7.1.234.163.454.051.605a.5.5 0 01.5.116q.7.909 1.349 1.86a1.71 1.71 0 01-.221-.187l.214.381c-.08 0-.115.045-.153.007.2.333.57.105.59.69-.137.079-.285-.151-.455-.307a3.118 3.118 0 001.055 1.01 34.474 34.474 0 012.128 4.132 2.178 2.178 0 01-.294-.2 2.639 2.639 0 00.667 1.157c.16.406.327.81.469 1.224a.512.512 0 00-.141.168c.1.1.2.21.3.323.075.23.137.464.208.7-.012.033 0 .063-.021.1l.043-.02c.194.638.371 1.279.523 1.928a2.23 2.23 0 01-.025.447l.157.171a30.2 30.2 0 01.624 4.647l-.007.02h.007A28.43 28.43 0 0163.258 40c-1.345 8.624-7.49 15.6-14.8 20.033m-6.982-18.462l-.028.027c-.074-.109-.031-.074.028-.027m.181-.218a.109.109 0 00.021.017l-.016-.021m.062-.051l.012.015-.026.026c-.024-.04-.04-.075.014-.041m.557-.526c-.012.015-.028.027-.041.041-.021-.048 0-.054.041-.041m.187-.23l-.074-.139c.1.1.084-.014.151.04-.027.032-.049.067-.077.1m-.028.036c-.011.012-.02.027-.032.041-.1-.147-.24-.341-.157-.311.11.141.139.2.189.27M32 33.708l-.156-.224a1 1 0 00.16.048v.176m-.064 3.43a.189.189 0 01-.1-.045.624.624 0 00.105-.007v.052m-.233 10.115c-.145-.059-.219-.144-.106-.3a.945.945 0 00.111.067v.231m.33 37.7l-.02-.019.02-.014zm11.137-45.327c-.042.059-.093.114-.136.173-.066-.2-.053-.325.136-.173m-.23.294a1.968 1.968 0 01-.166-.181c-.135-.269.019-.033.184.157a.173.173 0 00-.019.024m-.092.116l-.063.082c-.125-.172-.328-.426-.194-.372zM21.542 59.357l.614.177a.674.674 0 00-.187.062l-.427-.239m-8.864-5.448l-.111-.08a.2.2 0 01.151 0 .212.212 0 00-.04.083M2.621 28.293a3.733 3.733 0 00-.061-.186c.04-.223.075-.448.12-.671a1.063 1.063 0 01-.059.856m51.564-15.847a4.442 4.442 0 01-.457-.353.451.451 0 010-.093c.15.15.307.292.453.445m7.038 10.728c.035.083.063.168.1.25-.038-.068-.074-.124-.115-.2.006-.02.012-.03.019-.046M31.491 69.51a.681.681 0 01.15-.032c0 .093.006.184.01.276a.744.744 0 01-.16-.244m.282 4.5c.014 0 .019 0 .031-.009v.061c-.01-.021-.025-.028-.033-.052m-9.136 4.8h-.011c-.074.04-.152.071-.228.108a.033.033 0 00-.038.019c-.066.031-.129.063-.2.092a.56.56 0 00-.01-.1c-.148.255-.359.054-.439.276-.166.056-.334.1-.5.146a.316.316 0 00-.119-.132.407.407 0 00-.089.192 5.367 5.367 0 01-6.395-3.754 8.164 8.164 0 01-.267-1.043c.062-.189-.234-.322-.415-.5-.106-.182 0-.386.105-.57.395-.491.23-1.406.583-2.108a5.809 5.809 0 019.308-2.11c1.032 1.074 2.16 2.674 1.641 4.228a6.351 6.351 0 01-.038.991c-.212-.262-.317-.522.02-.593-.339.079-.713-.1-.677-.205.2-.046.34.049.512.079.062-.054.209-.1.127-.161a1.492 1.492 0 01-.929-.111c-.4.226.71.5.625.807a1.872 1.872 0 00-.335-.083c.1.325.187.78-.1.827-.122.072.35.244.413.426l-.34-.056c.176.15-.239.233.3.369.048.01-.22-.166-.108-.192l.174.08-.01-.174.106.068c-.043.139-.1.269-.151.4a1.115 1.115 0 00-.4-.267c.04.082-.124.087.046.177.047.011.155.063.13.007l.189.153c-.028.071-.061.14-.093.208.007-.129.082-.2-.328-.323a1.929 1.929 0 01-.4.854c-.643-.532-1.282-1.053-1.8-1.488-.262-.224-.979-.854-1.224-1.072-.365-.193-.152-.676-.223-1.043a1.477 1.477 0 10-1.205 1.706.516.516 0 01.3.025l-.131.129.156-.041.05-.051a.774.774 0 01.17.161l-.007.011h.014c.063.071.129.151.193.223a1.984 1.984 0 01-.144.145l.157-.048c.01-.009.026-.028.037-.037l.052.058-.108.119c-.061.09.135-.074.153-.067 0 .006-.015.031-.071.093-.146.158-.193.165-.243.184.1-.035-.2.379-.09.41.069.032.359-.244.6-.457l.074.085-.032.03c-.208.25-.048.15.105.054l.071.082a2.231 2.231 0 00-.375.361c-.014-.04.068-.122.057-.184-.33.445.08.179.21.122.026-.047.13-.157.08-.148l.113-.054c.02.025.041.047.062.072-.088.118 0 .124-.141.282-.215.173.028-.148-.223.109-.026.189.374.063.7 0l.1.116-.094.082a.324.324 0 01.147-.017l.089.106a.8.8 0 01-.209.455c.214-.244.016.186.419-.2l.024.028a.706.706 0 00-.024.09l.056-.052.04.048c-.064.085-.131.172-.1.192a1.877 1.877 0 01.13-.152l.106.127-.3.464a3.624 3.624 0 00.265-.316c-.036.074.031.02.11-.053l.031.037c-.1.111-.239.245-.329.334-.038.125.293-.156.419-.225l.028.033-.007.016.01-.012.155.186c-.234.238-.288.162-.448.273a1.963 1.963 0 01-.182.288l.7-.483v.007c-.413.367-.337.445-.346.5.184-.193.261-.3.193-.308a.928.928 0 01.189-.15l.1.115c-.083.088-.209.209-.329.325.218-.127.178-.033.348-.15 0 .014-.006.026-.009.042-.1.109-.054.015-.234.24l.231-.158v.02a2.817 2.817 0 00-.226.229.194.194 0 01-.026-.015l.02.027c-.006.01-.017.021-.019.031l.027-.019.046.064c-.031.017-.066.028-.1.045m2.7-3.34c-.181-.114-.433-.245-.281-.342l.338.1c-.019.08-.035.163-.057.241m-.1-.638c-.264-.25 0-.084.26-.026 0 .025-.014.048-.017.073a.9.9 0 01-.243-.047m-4.353.89l-.151.071c.045-.036.083-.071.121-.105l.03.035m.564.65l.01.01a.5.5 0 01-.087.069c.035-.033.054-.054.077-.079m1.61 1.954l.01-.007a.847.847 0 00.04.048l-.017.014zm.122.129l.009.011-.036.025.03-.031m1.416-1.85a.928.928 0 01.181.2c-.021.036-.048.067-.071.1-.1-.13-.205-.266-.11-.3m.2 0a.1.1 0 00.12-.04c-.025.047-.041.1-.067.144zM22.7 78.694a.812.812 0 01.208-.136c0 .024 0 .043-.006.064 0 .015 0 .032-.006.046-.037.022-.071.053-.108.074a.387.387 0 01-.088-.049m3.7-8.148a.108.108 0 01.053.077l-.017.009c-.011-.03-.024-.057-.036-.085m.093-.254a1.821 1.821 0 00-.177.047 5.357 5.357 0 00-.046-.113c.073.024.147.041.223.066M25 68.321l-.025-.027a.219.219 0 01.1-.053 1.022 1.022 0 00-.075.08m-6.22-2.493a1.3 1.3 0 00-.045.166c-.053 0-.106.012-.158.019.015-.182.063-.291.2-.184M13.337 78.2a.919.919 0 01.1-.1c.041.049.084.094.126.142a.506.506 0 01-.225-.046m2.558 1.933c.006-.022.012-.03.019-.049.02.01.038.024.058.033-.026 0-.047.019-.077.016m11.06 2.383c.024-.031.061-.068.092-.1.017.014.036.027.054.04a.554.554 0 01-.146.063m1 .614l.017-.02.01.009c-.009 0-.02.01-.027.011M25.641 97.56c.012-.057.019-.108.026-.16h.1zm2.033.012a.906.906 0 000-.106h.03a.246.246 0 01-.026.105m5.559.235a1.041 1.041 0 00.028-.11l.139.006c-.033.142-.08.217-.167.1m12.712.109a1.162 1.162 0 01-.015-.121l.139-.011a.447.447 0 01-.124.132m2.537-.282c0-.02 0-.028-.007-.046h.052c-.016.016-.025.038-.045.051m10.651-26.471c1.592 1.63 3.055 4.024 2.533 6.391a10.626 10.626 0 01-.1 1.471c-.181-.369-.254-.747.071-.864-.343.136-.713-.126-.673-.3.207-.077.34.071.511.111.063-.085.212-.156.131-.249a.984.984 0 01-.926-.17c-.413.386.7.786.589 1.251a1.307 1.307 0 00-.333-.1c.089.51.1 1.182-.2 1.3-.141.131.325.314.363.569l-.353-.022c.162.189-.3.393.256.486.051 0-.207-.2-.083-.261l.173.087.019-.252.088.069a8.544 8.544 0 01-.218.62.779.779 0 00-.381-.309c.027.109-.155.151.012.246.049.007.157.059.141-.015l.179.183c-.047.114-.1.225-.15.334.027-.194.15-.319-.292-.414-.215.991-1.236 1.845-1.706 3l-.032-.306c-.109.739-.807.2-.747 1l-.054.036-.161-.309c-.191.035-.147.44-.275.589l-.067.043a.268.268 0 01-.224-.042l.089.114c-.036.02-.072.037-.109.056a.109.109 0 00-.059 0l.02.017c-.111.059-.221.12-.335.176.009-.007.02-.011.025-.021-.064-.045-.1 0-.131.072-.088.041-.179.074-.268.113a1.253 1.253 0 00.006-.126c-.259.311-.538.126-.688.384-.25.083-.5.155-.756.215a.3.3 0 00-.162-.121.468.468 0 00-.146.193c-.271.054-.544.1-.82.13-.1-1.424-.3-3.139-.415-4.416-.027-.33-.089-1.25-.108-1.565a.473.473 0 01.225-.522 1.512 1.512 0 10-1.7 0 .484.484 0 01.193.221h-.184l.14.079h.056a.739.739 0 01.028.223h-.021l.02.01c0 .094-.014.187-.025.28a1.924 1.924 0 01-.207 0l.145.074h.058v.074l-.171.004c-.146.028.386.057.038.075a.519.519 0 01-.3-.041c.1.046-.4.126-.354.219.027.069.433.078.757.1 0 .043 0 .058-.009.109h-.051c-.327.03-.134.072.043.11l-.007.1a2.429 2.429 0 00-.527-.009c.019-.036.135-.037.171-.088-.548.079-.071.178.063.228.049-.015.2-.017.161-.046l.124.041c0 .038 0 .059-.006.089-.151.02-.093.083-.307.1-.273-.028.126-.082-.234-.078-.152.113.224.3.5.48l-.015.145-.127-.009a.315.315 0 01.119.09c0 .043-.009.087-.012.13a.82.82 0 01-.473.17c.324-.021-.12.139.44.148v.035a.677.677 0 00-.083.046h.078l-.017.056c-.106.014-.215.028-.207.064a1.888 1.888 0 01.2-.015c0 .054-.01.1-.016.158l-.537.115a3.8 3.8 0 00.41-.035c-.078.027.007.035.116.04v.046c-.151.006-.341 0-.469 0-.116.059.318.1.455.132v.042l-.016.006h.015l-.022.231c-.332 0-.317-.085-.509-.119a1.912 1.912 0 01-.333.072l.831.146v.01c-.551-.032-.552.073-.6.1.267 0 .4-.028.353-.078a1.009 1.009 0 01.24.026l-.011.159h-.462c.276.069.094.108.433.15-.345.038-.105-.027-.452.012l.313.056c-.089.041-.343-.042-.423.021.2.007.412.059.363.11l-.118-.015c.109.032.01.073.3.077v.015l-.351.027.349-.006v.019c-.246.09-1.055.134-.606.26a1.144 1.144 0 01.423.014c.287-.056-.3-.069-.348-.122.166 0 .343.01.513.022 0 .049-.009.1-.012.146-.09 0-.2.01-.342.015-.08.085.428.118.174.205h-.155c.65.015-.188.064.292.124l-.017.192h-.066.064c0 .033 0 .067-.009.1-.11 0-.218.01-.339.019-.137-.071.186-.083-.342-.137-.694.118.546.1-.068.234l.737.025v.031a1.3 1.3 0 00-.3.019 1.821 1.821 0 00.3 0l-.015.173a.26.26 0 00-.088.033c.041-.007.054 0 .087-.009 0 .047-.01.1-.014.142H51.6h.014c0 .025 0 .052-.006.078l-.049-.009.048.024c0 .049-.009.1-.012.15a8.491 8.491 0 01-7.227-7.274c.026-.333-.3-.546-.459-.8a1.261 1.261 0 01.091-.867 4.571 4.571 0 00.359-1.67 9.824 9.824 0 01.46-1.613c2.07-5.674 10.032-7.439 14.32-3.107m2.139 9.3c-.172-.139-.411-.29-.238-.462l.33.1c-.03.121-.058.243-.093.361m.238-1.007c-.007.041-.016.079-.025.119a.617.617 0 01-.229-.045c-.23-.34 0-.14.254-.074M60.3 82.643c-.093-.157-.192-.33-.068-.4a.763.763 0 01.165.235c-.033.056-.062.115-.1.17m-8.226-1.367l-.163-.058c.059.006.114.009.167.012v.046m-.061.84a.592.592 0 01-.114-.021h.118v.015m-.246 2.478c-.142-.015-.215-.036-.1-.073.046.009.069.006.109.012l-.006.061m9.084 11.317c-.2.019-.4.04-.6.052.229-.218.5-.335.6-.052m-.883.071h-.071a.73.73 0 01-.015-.262c.205-.3.087 0 .085.261m-.447-.377v.391c-.088 0-.174.006-.261.007.054-.212.1-.526.262-.4m-1.5.418h-.094l.041-.066a.087.087 0 00.053.066m-.166-.233a.925.925 0 01-.063.234h-.13c.051-.152.109-.3.193-.235m-4 .173h-.377c0-.037-.011-.075-.016-.113.213.024.52.043.393.114m-.436-.627v-.071l.088.024c-.071.006-.079.026-.083.047m.25-.1a2.224 2.224 0 01-.259-.031v-.057c.162.022.329.049.262.088m6.809-12.931l-.033-.121c.077.019.121-.043.163-.106-.041.078-.087.151-.13.228m1.806-9.337a1.082 1.082 0 00-.168.028c-.024-.049-.046-.1-.071-.148.078.042.158.077.239.12M60.185 70.2l-.042-.043c.057-.046.111-.08.15-.074a.661.661 0 00-.108.118m-8.736-3.417c-.019.035-.025.059-.038.09-.077.006-.153.007-.23.016.041-.124.115-.187.269-.106m-7.556 17.23a.534.534 0 01.084-.093l.148.189a.686.686 0 01-.233-.1m3.5 2.779l.007-.03.068.035a.526.526 0 01-.075 0m4.166 3.259c.041 0 .1 0 .142-.007 0 .021.006.043.01.066a.639.639 0 01-.152-.058m.276 1.1h.031v.015a.077.077 0 01-.033-.012m-18.324 4.587c-.007-.25-.012-.5-.02-.75a1.266 1.266 0 01.163.744l-.144.006m-.035-1.336v-.148a.463.463 0 01.218-.009c.278.344.03.179-.214.157m.33-.8h-.35c0-.15-.009-.3-.012-.447.21.09.484.174.363.449m-.419-2.652v-.174l.073.078a.124.124 0 00-.068.1m.234-.3a.652.652 0 01-.244-.12c0-.077 0-.155-.006-.233.158.092.317.2.25.353m-.272-4.927a.139.139 0 01-.01-.03v-.068c.146-.129.292-.213.32-.187a1.55 1.55 0 01-.311.285m.21-9.411a17.461 17.461 0 01.335-2.984 9.159 9.159 0 01-.345 2.984m.766-4.509c.045-.119.088-.239.137-.354a.193.193 0 01.252.054c-.1 1.037-.155.4-.39.3m1.923-2.8a1.418 1.418 0 01-.548 1.072l-.3-.233a9.347 9.347 0 01.861-.99c-.006.049-.014.1-.017.151m5.52-3.735l.412-.208-.171.161a.5.5 0 00-.239.046m.867-.172a.977.977 0 01.214-.374l.569-.29c.022-.011.045-.024.067-.033a1.6 1.6 0 01-.85.7"/></g></svg>