<?xml version="1.0" standalone="no"?>
<!DOCTYPE svg PUBLIC "-//W3C//DTD SVG 20010904//EN"
 "http://www.w3.org/TR/2001/REC-SVG-20010904/DTD/svg10.dtd">
<svg version="1.0" xmlns="http://www.w3.org/2000/svg"
 width="685.000000pt" height="272.000000pt" viewBox="0 0 685.000000 272.000000"
 preserveAspectRatio="xMidYMid meet">

<g transform="translate(0.000000,272.000000) scale(0.100000,-0.100000)"
fill="#000000" stroke="none">
<path d="M550 1281 l0 -1001 190 0 190 0 2 389 3 389 319 -389 318 -389 239 0
c132 0 239 3 239 6 0 3 -131 166 -291 362 l-291 356 41 18 c106 45 223 150
289 260 122 205 119 472 -9 684 -50 82 -160 182 -254 231 -142 74 -152 75
-592 80 l-393 5 0 -1001z m775 598 c23 -8 64 -37 97 -70 45 -44 60 -68 73
-113 29 -100 5 -190 -73 -269 -74 -75 -118 -87 -322 -87 l-170 0 0 281 0 281
178 -5 c111 -3 192 -9 217 -18z"/>
<path d="M2000 1598 c0 -755 0 -748 65 -883 147 -305 497 -482 835 -421 253
46 468 207 576 433 61 127 64 153 64 706 l0 497 123 0 c68 0 185 3 260 7 l137
6 0 -671 0 -672 190 0 190 0 2 667 3 668 258 3 257 2 0 170 0 170 -905 0 -905
0 -2 -672 -3 -673 -24 -48 c-51 -104 -170 -191 -299 -218 -153 -31 -336 71
-410 228 l-27 58 -3 663 -3 662 -189 0 -190 0 0 -682z"/>
<path d="M4060 436 l0 -156 186 0 186 0 -168 143 c-92 78 -175 148 -186 155
-17 13 -18 7 -18 -142z"/>
</g>
</svg>
